<svg width="47" height="47" viewBox="0 0 47 47" fill="none" xmlns="http://www.w3.org/2000/svg">
<g clip-path="url(#clip0_213_343)">
<path d="M39.3549 0H7.58235C3.39474 0 0 3.38936 0 7.57033V39.4865C0 43.6675 3.39474 47.0568 7.58235 47.0568H39.3549C43.5425 47.0568 46.9372 43.6675 46.9372 39.4865V7.57033C46.9372 3.38936 43.5425 0 39.3549 0Z" fill="url(#paint0_linear_213_343)"/>
<path d="M23.8232 20.258C25.0221 20.258 25.9307 20.0017 26.5499 19.4772C27.1692 18.9526 27.4787 18.1886 27.4787 17.1735C27.4787 16.1712 27.1692 15.4097 26.5499 14.8892C25.9266 14.3555 25.0217 14.0886 23.8232 14.0886H19.614V20.2583H23.8232M24.0798 33.0074C25.6076 33.0074 26.7538 32.689 27.5179 32.0509C28.2952 31.4132 28.6839 30.4501 28.6839 29.1615C28.6839 27.8986 28.3018 26.9552 27.5377 26.3307C26.7736 25.693 25.6212 25.3742 24.0802 25.3742H19.6144V33.0082H24.0802M31.154 22.524C32.7874 22.9925 34.052 23.8583 34.9477 25.1205C35.8434 26.3827 36.2911 27.9319 36.2915 29.7674C36.2915 32.5788 35.3298 34.6745 33.4067 36.0542C31.4836 37.434 28.5596 38.1236 24.6338 38.1236H12.0078V8.97388H23.429C27.5256 8.97388 30.4896 9.58521 32.3203 10.809C34.1646 12.0324 35.0867 13.9916 35.0867 16.6859C35.0867 18.1048 34.7508 19.315 34.0791 20.3173C33.4074 21.3064 32.4292 22.0378 31.1547 22.5236" fill="#2D2E32"/>
</g>
<defs>
<linearGradient id="paint0_linear_213_343" x1="2.70772" y1="44.6166" x2="43.982" y2="2.55481" gradientUnits="userSpaceOnUse">
<stop stop-color="#6D6D6D"/>
<stop offset="1" stop-color="#C7C7C8"/>
</linearGradient>
<clipPath id="clip0_213_343">
<rect width="47" height="47" fill="white"/>
</clipPath>
</defs>
</svg>
