<svg width="45" height="42" viewBox="0 0 45 42" fill="none" xmlns="http://www.w3.org/2000/svg">
<path d="M44.1873 30.3538C44.2071 30.1612 44.2214 29.9667 44.2325 29.7713C44.2458 29.5399 30.3007 16.3156 30.3007 16.3156H29.9673C29.9673 16.3156 44.102 31.2171 44.1873 30.3538Z" fill="url(#paint0_linear_214_410)"/>
<path d="M14.4349 25.7665C14.4164 25.807 14.398 25.8476 14.3791 25.8881C14.3592 25.9305 14.339 25.9729 14.3187 26.0149C13.8741 26.9413 20.5419 33.4562 21.0782 32.6648C21.1026 32.6298 21.1271 32.5929 21.1515 32.5579C21.1787 32.5164 21.2055 32.4768 21.2322 32.4353C21.6611 31.7845 14.6253 25.3433 14.4349 25.7665Z" fill="url(#paint1_linear_214_410)"/>
<path d="M23.8571 34.9279C23.8382 34.9693 23.704 35.1961 23.5813 35.3159C23.5605 35.3574 30.0904 41.8299 30.0904 41.8299H30.6784C30.6788 41.8299 24.5488 35.2016 23.8571 34.9279Z" fill="url(#paint2_linear_214_410)"/>
<path d="M44.2417 29.6537C43.9364 36.4198 38.3357 41.8299 31.4932 41.8299H30.5682L23.7349 35.1016C24.297 34.3093 24.8195 33.4885 25.2848 32.6326H31.4932C33.4568 32.6326 35.0547 31.0364 35.0547 29.073C35.0547 27.1104 33.4568 25.5134 31.4932 25.5134H27.8193C28.0992 24.0344 28.2523 22.5092 28.2523 20.9491C28.2523 19.3649 28.0964 17.8181 27.8063 16.3156H30.0886L44.2016 30.2142C44.2182 30.028 44.2315 29.8418 44.2417 29.6537ZM3.71225 0H0V9.19737H3.71225C10.196 9.19737 15.4715 14.4687 15.4715 20.9491C15.4715 22.712 15.0782 24.3856 14.3791 25.8881L21.1515 32.5579C23.3752 29.2325 24.6751 25.2401 24.6751 20.9491C24.6751 9.39786 15.2709 0 3.71225 0Z" fill="url(#paint3_linear_214_410)"/>
<path d="M31.4932 0H16.4607C20.1324 2.24046 23.1727 5.41748 25.2442 9.19737H31.4932C33.4568 9.19737 35.0547 10.7935 35.0547 12.7569C35.0547 14.7199 33.4568 16.316 31.4932 16.316L30.0886 16.3156L44.2016 30.2142C44.2348 29.8372 44.256 29.4583 44.256 29.073C44.256 25.9725 43.1428 23.1282 41.2945 20.9145C43.1428 18.7017 44.256 15.857 44.256 12.7569C44.256 5.72306 38.5313 0 31.4932 0Z" fill="url(#paint4_linear_214_410)"/>
<path d="M30.5682 41.8299H16.5681C19.3862 40.0905 21.8225 37.7942 23.7349 35.1016L30.5682 41.8299ZM21.1515 32.5579L14.3791 25.8881C12.5082 29.9068 8.43164 32.7017 3.71225 32.7017H0V41.8981H3.71225C10.9772 41.8981 17.3895 38.1842 21.1515 32.5579Z" fill="#6F6F6F"/>
<defs>
<linearGradient id="paint0_linear_214_410" x1="-36.5717" y1="-38.8898" x2="41.1367" y2="48.6772" gradientUnits="userSpaceOnUse">
<stop stop-color="#C3C3C4"/>
<stop offset="1" stop-color="#B3B3B3"/>
</linearGradient>
<linearGradient id="paint1_linear_214_410" x1="-114.589" y1="-104.314" x2="34.7767" y2="49.5613" gradientUnits="userSpaceOnUse">
<stop stop-color="#F9A03C"/>
<stop offset="1" stop-color="#F7974E"/>
</linearGradient>
<linearGradient id="paint2_linear_214_410" x1="-98.7628" y1="-109.76" x2="32.9566" y2="49.7548" gradientUnits="userSpaceOnUse">
<stop stop-color="#F9A03C"/>
<stop offset="1" stop-color="#F7974E"/>
</linearGradient>
<linearGradient id="paint3_linear_214_410" x1="5.01806" y1="-0.763257" x2="34.3527" y2="40.1379" gradientUnits="userSpaceOnUse">
<stop stop-color="#C7C7C8"/>
<stop offset="1" stop-color="#717171"/>
</linearGradient>
<linearGradient id="paint4_linear_214_410" x1="7.01176" y1="1.61644" x2="51.6068" y2="32.5681" gradientUnits="userSpaceOnUse">
<stop stop-color="#C4C4C5"/>
<stop offset="1" stop-color="#6E6E6E"/>
</linearGradient>
</defs>
</svg>
