<svg width="77" height="52" viewBox="0 0 77 52" fill="none" xmlns="http://www.w3.org/2000/svg">
<path d="M19.1656 46.6558H16.3293C16.2296 41.8556 15.9531 37.342 15.5011 33.1139H15.4762L11.1578 46.6558H8.99822L4.70596 33.1139H4.68068C4.36219 37.1744 4.16183 41.6881 4.07827 46.6558H1.49219C1.65931 40.6143 2.07754 34.9509 2.74688 29.6643H6.2623L10.3543 42.1491H10.3794L14.4965 29.6643H17.8601C18.5967 35.8558 19.0316 41.521 19.1652 46.6558" fill="#686868"/>
<path d="M31.4688 34.1197C30.3138 40.4033 28.7903 44.9696 26.8993 47.8182C25.4259 50.0131 23.8118 51.1106 22.0542 51.1106C21.5857 51.1106 21.0079 50.9691 20.3223 50.6879V49.1732C20.6572 49.2224 21.0502 49.2486 21.5022 49.2486C22.3222 49.2486 22.983 49.0214 23.4858 48.5678C24.0878 48.0152 24.3891 47.3941 24.3891 46.7058C24.3891 46.2356 24.1541 45.2709 23.6862 43.8116L20.5735 34.1197H23.3598L25.5939 41.3683C26.0958 43.0141 26.3051 44.163 26.2214 44.8179C27.4433 41.5455 28.2969 37.9794 28.7825 34.1197H31.4687" fill="#686868"/>
<path d="M43.8937 41.9461C43.8937 43.3871 43.3656 44.5701 42.3131 45.4957C41.2596 46.4172 39.8443 46.8792 38.0721 46.8792C36.4145 46.8792 34.8081 46.3474 33.252 45.2927L33.9799 43.8331C35.319 44.5043 36.5309 44.8394 37.6189 44.8394C38.6395 44.8394 39.4384 44.6117 40.0163 44.1617C40.5929 43.7085 40.9385 43.0764 40.9385 42.2747C40.9385 41.2658 40.2368 40.4035 38.9493 39.68C37.7606 39.026 35.3851 37.6605 35.3851 37.6605C34.098 36.7191 33.4528 35.7091 33.4528 34.0448C33.4528 32.6684 33.934 31.5558 34.8951 30.7094C35.8585 29.8612 37.1013 29.4371 38.6233 29.4371C40.1965 29.4371 41.6271 29.8581 42.9155 30.697L42.261 32.1552C41.1585 31.6865 40.0714 31.4513 38.9996 31.4513C38.1299 31.4513 37.4596 31.6606 36.9924 32.0818C36.5226 32.4994 36.2321 33.0367 36.2321 33.6916C36.2321 34.6979 36.9491 35.5708 38.2729 36.3082C39.4764 36.9626 41.9101 38.3545 41.9101 38.3545C43.2339 39.2942 43.8937 40.296 43.8937 41.9461" fill="#C9C9CA"/>
<path fill-rule="evenodd" clip-rule="evenodd" d="M48.9641 43.2567C48.2777 42.1491 47.9338 40.3717 47.9338 37.921C47.9338 33.6425 49.2314 31.5018 51.8252 31.5018C53.1814 31.5018 54.1767 32.0138 54.8132 33.0367C55.4987 34.1448 55.8426 35.9068 55.8426 38.3233C55.8426 42.6361 54.545 44.7933 51.9512 44.7933C50.5955 44.7933 49.5998 44.2819 48.9641 43.2568M59.0559 47.0656L55.941 45.5255C56.2184 45.2974 56.4818 45.0514 56.7202 44.7666C58.0427 43.2077 58.7046 40.9003 58.7046 37.8456C58.7046 32.2244 56.5036 29.4122 52.1021 29.4122C49.9432 29.4122 48.2606 30.125 47.0558 31.5527C45.7329 33.1134 45.0723 35.4121 45.0723 38.4495C45.0723 41.4362 45.6576 43.6273 46.8292 45.0191C47.8966 46.2771 49.5109 46.907 51.6721 46.907C52.4784 46.907 53.2182 46.8075 53.8906 46.6084L57.9469 48.9752L59.0528 47.0654" fill="#C9C9CA"/>
<path d="M69.223 46.6558H61.165V29.6643H63.8765V44.5656H69.223V46.6557" fill="#C9C9CA"/>
<path d="M71.1566 46.6541H71.6059V44.9253H72.1939V44.5722H70.5459V44.9253H71.1566V46.6541ZM74.5755 46.6541H74.999V44.5722H74.362L73.8436 45.9913L73.2793 44.5722H72.6655V46.6541H73.0662V45.0696H73.089L73.68 46.6541H73.9854L74.5755 45.0696V46.6541" fill="#C9C9CA"/>
<path fill-rule="evenodd" clip-rule="evenodd" d="M72.6273 23.9729C70.9885 23.9318 69.7194 24.0958 68.655 24.5478C68.3479 24.6708 67.857 24.6708 67.815 25.061C67.98 25.2249 67.9997 25.4916 68.144 25.7184C68.389 26.129 68.8182 26.6824 69.208 26.9706C69.638 27.2993 70.0681 27.6265 70.5191 27.9139C71.3171 28.4087 72.2183 28.6949 72.9952 29.1878C73.4472 29.4749 73.896 29.8441 74.3479 30.1529C74.5724 30.317 74.7145 30.5843 75.0024 30.6859V30.6238C74.858 30.4395 74.8178 30.1726 74.6752 29.9661C74.4709 29.7624 74.2657 29.5764 74.0605 29.372C73.4664 28.5715 72.7284 27.8741 71.9317 27.2993C71.2759 26.8464 69.8419 26.2304 69.5768 25.4731C69.5768 25.4731 69.5553 25.4513 69.5352 25.4311C69.9858 25.3894 70.5191 25.2249 70.9487 25.1004C71.6439 24.9162 72.2787 24.9578 72.9952 24.7736C73.3234 24.6909 73.651 24.5875 73.98 24.4866V24.3005C73.6095 23.9318 73.3444 23.4383 72.9554 23.0896C71.912 22.1866 70.7641 21.3045 69.5768 20.5643C68.9411 20.1536 68.1222 19.888 67.4462 19.5381C67.2017 19.4148 66.7926 19.354 66.6487 19.1475C66.2799 18.696 66.0743 18.1014 65.8088 17.5668C65.2155 16.4389 64.6411 15.187 64.1301 13.9943C63.7618 13.1942 63.5365 12.3941 63.0859 11.6546C60.9759 8.16381 58.6835 6.05041 55.1618 3.97649C54.4041 3.54486 53.5033 3.36019 52.5417 3.13429C52.029 3.11279 51.5176 3.07288 51.0057 3.0527C50.6776 2.90838 50.3495 2.51799 50.0634 2.33332C48.8958 1.59463 45.8872 -0.00642731 45.0267 2.10785C44.4737 3.44309 45.8456 4.7564 46.3168 5.43411C46.6646 5.90566 47.1156 6.44037 47.3602 6.97332C47.5037 7.32249 47.5448 7.6927 47.6887 8.0616C48.016 8.96478 48.3227 9.97104 48.7536 10.8132C48.978 11.2444 49.2234 11.6967 49.51 12.0849C49.6753 12.3121 49.961 12.4134 50.0227 12.7841C49.737 13.1942 49.7147 13.8101 49.5511 14.3237C48.8144 16.6437 49.1005 19.5177 50.1452 21.2215C50.472 21.7346 51.2511 22.8641 52.2954 22.432C53.2167 22.0631 53.012 20.8928 53.278 19.867C53.3392 19.6188 53.2981 19.4561 53.4206 19.2921V19.3336C53.7072 19.9076 53.9946 20.4605 54.2606 21.0373C54.8962 22.0422 56.0009 23.0895 56.9231 23.7868C57.4131 24.1578 57.8024 24.7932 58.4166 25.0197V24.9577H58.3764C58.253 24.7734 58.0693 24.6907 57.9052 24.5476C57.5369 24.1779 57.1283 23.726 56.8404 23.3156C55.9808 22.1664 55.2222 20.8928 54.548 19.5791C54.2195 18.9412 53.9333 18.2438 53.6669 17.6077C53.5444 17.3625 53.5444 16.9919 53.3392 16.8691C53.0313 17.3202 52.582 17.7109 52.3571 18.2635C51.9677 19.1473 51.9271 20.2352 51.7827 21.3648C51.7013 21.3863 51.7424 21.3648 51.7013 21.4056C51.0468 21.2415 50.8215 20.5641 50.5752 19.9912C49.961 18.5316 49.8578 16.1913 50.3911 14.5077C50.5337 14.0773 51.1497 12.7224 50.9029 12.3118C50.7791 11.9201 50.3701 11.6964 50.1452 11.3871C49.8796 10.9972 49.5913 10.5054 49.4089 10.0734C48.9172 8.92412 48.67 7.65073 48.1393 6.50147C47.8935 5.96676 47.4626 5.41232 47.1156 4.92059C46.7258 4.36614 46.2962 3.97619 45.9887 3.31997C45.8872 3.09363 45.7437 2.72385 45.9069 2.47821C45.9471 2.31371 46.0303 2.25186 46.1943 2.21063C46.459 1.98473 47.2176 2.2716 47.4831 2.39486C48.2413 2.70191 48.8761 2.99098 49.51 3.42129C49.797 3.62701 50.1041 4.01698 50.472 4.1205H50.9029C51.5578 4.26306 52.2954 4.16041 52.9101 4.34596C53.9946 4.69469 54.9772 5.2079 55.8582 5.76235C58.5396 7.46649 60.751 9.88958 62.245 12.7838C62.4913 13.2553 62.5946 13.6869 62.8194 14.1787C63.2495 15.1867 63.7823 16.2131 64.2115 17.1976C64.6411 18.1626 65.0515 19.1472 65.6666 19.9491C65.9728 20.3795 67.2017 20.6053 67.7547 20.8313C68.1633 21.0155 68.7989 21.18 69.1677 21.4055C69.8638 21.8359 70.5585 22.3294 71.2147 22.8023C71.5415 23.0487 72.5656 23.5614 72.6273 23.9726" fill="#686868"/>
<path fill-rule="evenodd" clip-rule="evenodd" d="M51.7419 6.13004C51.3945 6.13004 51.1495 6.17215 50.9023 6.23313V6.27435H50.9422C51.1075 6.60202 51.3945 6.82968 51.5975 7.11656C51.7624 7.44511 51.9059 7.77233 52.0695 8.10132C52.0897 8.08114 52.1093 8.05964 52.1093 8.05964C52.3981 7.85524 52.5411 7.52713 52.5411 7.03365C52.4173 6.88889 52.3981 6.74633 52.2948 6.60202C52.1723 6.39717 51.9059 6.29452 51.7419 6.13003" fill="#686868"/>
</svg>
