<svg width="67" height="70" viewBox="0 0 67 70" fill="none" xmlns="http://www.w3.org/2000/svg">
<path d="M29.3429 69.8765C26.1204 69.2355 23.3382 67.0317 21.9856 64.0486C21.3906 62.7362 21.1374 61.4964 21.1418 59.9154C21.1538 55.3716 24.011 51.5774 28.4497 50.2096C29.2674 49.9577 29.807 49.8911 31.0607 49.8878C31.9299 49.8858 32.8884 49.9314 33.1908 49.99L33.7405 50.0965L34.417 48.7829C35.7985 46.1004 37.9515 43.9931 40.7348 42.5991C43.0309 41.4491 44.4738 41.1147 47.1391 41.1147C49.0059 41.1147 49.439 41.1597 50.6434 41.4788C55.8445 42.8569 59.8984 46.9388 61.1743 52.0823C61.4938 53.3702 61.6532 56.258 61.4673 57.3908L61.3404 58.1643L62.0688 58.3274C63.8944 58.7359 65.4699 60.0113 66.2754 61.7327C67.072 63.435 66.9262 65.6376 65.9103 67.2468C65.3918 68.0682 64.3753 68.981 63.5271 69.3871C63.0923 69.5952 62.6292 69.8219 62.4979 69.8907C62.2032 70.0454 30.1228 70.0316 29.3429 69.8765ZM62.6939 67.9777C63.5965 67.5289 64.4892 66.5256 64.8601 65.5428C65.6298 63.5038 64.603 61.1348 62.5546 60.2234C62.0373 59.9932 61.6509 59.94 60.5722 59.9502C59.8352 59.9572 59.2323 59.9107 59.2323 59.8469C59.2323 59.7831 59.3692 59.185 59.5365 58.5177C59.9645 56.8105 59.9602 54.0884 59.5265 52.4259C58.5709 48.76 56.0933 45.7023 52.7044 44.0067C51.2152 43.2616 49.7988 42.9208 47.8634 42.8418C44.9995 42.7249 43.0001 43.1762 40.7968 44.4368C38.2275 45.9068 36.0128 48.5707 35.1543 51.2234C34.9892 51.7336 34.789 52.1502 34.7094 52.1493C34.6294 52.1483 34.1627 52.0152 33.6714 51.8535C32.3046 51.4036 29.9736 51.4309 28.6095 51.9129C27.2364 52.398 26.2479 53.0198 25.2187 54.0458C23.676 55.5837 22.8191 57.6797 22.8191 59.9154C22.8191 63.2354 24.6479 66.146 27.6232 67.5611C29.3332 68.3744 28.7415 68.35 46.1081 68.323L62.0491 68.2982L62.6939 67.9777ZM16.7001 61.552C10.933 60.7704 6.49399 59.3223 3.21049 57.1514C1.8557 56.2556 0.920299 55.2537 0.392899 54.1335L0 53.2989L0.0719986 8.10717L0.400101 7.49154C1.2295 5.93535 2.8466 4.60746 5.4212 3.36865C8.6766 1.80219 12.4307 0.822882 17.662 0.175382C19.8163 -0.0912584 27.132 -0.0441115 29.3429 0.250668C37.4844 1.33613 43.8023 3.9962 45.8163 7.18646C46.6099 8.44363 46.5894 7.98793 46.5894 24.4144V39.4957L46.1428 39.5649C45.8972 39.6029 45.3407 39.672 44.9062 39.7184C40.4228 40.1971 35.7733 43.2966 33.39 47.3954L32.902 48.2345L30.9851 48.325C28.7201 48.432 27.566 48.7221 25.844 49.6175C22.8873 51.1547 20.7741 53.8198 19.9124 57.0982C19.6744 58.0038 19.604 58.6601 19.5992 60.0185L19.5892 61.7706L18.8298 61.7544C18.4122 61.7454 17.4521 61.6544 16.6963 61.552H16.7001ZM28.424 40.7249C27.3422 39.8068 26.4066 39.0112 26.3449 38.9568C26.2829 38.9024 26.508 38.6965 26.8443 38.4994C27.5901 38.0623 28.5504 37.0163 28.9582 36.1967C29.9547 34.1938 29.9325 31.7026 28.9002 29.7203C27.7652 27.5401 25.3899 26.3964 22.6988 26.7343C21.2253 26.9194 20.3022 27.3327 19.3287 28.2433C17.7921 29.6807 17.2599 31.0911 17.3407 33.5117C17.3867 34.8879 17.4357 35.1354 17.8293 35.9707C18.6764 37.7686 20.4475 39.1123 22.2518 39.326C22.9306 39.4064 22.9895 39.4509 24.3383 40.9014L25.7264 42.3941H30.3907L28.424 40.7249ZM22.539 36.0383C21.5939 35.5588 21.235 34.7372 21.235 33.053C21.235 31.9571 21.288 31.6371 21.5574 31.0891C21.9883 30.2141 22.8474 29.6881 23.6902 29.7831C24.5192 29.8765 24.9501 30.2118 25.3886 31.1045C25.7213 31.7822 25.7694 32.039 25.7655 33.118C25.7655 34.4491 25.5252 35.1316 24.8557 35.7542C24.1563 36.4048 23.4357 36.4932 22.539 36.0383ZM13.0297 39.228C15.5147 38.6548 16.8645 36.5736 16.1489 34.4191C15.7886 33.3342 15.027 32.6566 13.167 31.7658C12.308 31.3545 11.5398 30.9338 11.4599 30.8311C11.1471 30.4293 11.1478 30.1633 11.4599 29.7976C11.9439 29.2349 13.0457 29.208 14.5375 29.7224L15.6755 30.1149L15.5975 27.0773L14.8417 26.8977C13.6987 26.626 11.2281 26.6393 10.2561 26.9224C8.3071 27.49 7.2801 28.7639 7.2865 30.6056C7.2965 32.501 8.147 33.3995 11.1541 34.6754C12.4263 35.2153 12.572 36.2241 11.4348 36.619C10.9085 36.8018 10.7587 36.7983 9.9259 36.5832C9.4173 36.4519 8.6457 36.1601 8.2111 35.9347L7.4209 35.525V38.8134L8.2111 39.0334C8.6457 39.1543 9.06309 39.2748 9.13869 39.3012C9.45279 39.4106 12.4822 39.3536 13.0266 39.228H13.0297ZM39.5809 36.3474H35.1834V26.8653H31.6104V39.2333H39.5809V36.3474ZM28.9994 13.0489C32.5829 12.6336 35.5235 11.8824 37.3821 10.9076C38.6032 10.2671 38.896 10.0364 39.3654 9.34472C40.8169 7.20578 37.5667 5.05514 31.2668 3.98596C25.3481 2.98146 17.5482 3.20867 12.556 4.53103C2.2555 7.25953 6.31609 12.2716 19.6277 13.2597C21.8124 13.4219 26.7367 13.3111 28.9994 13.0489Z" fill="#C9C9CA"/>
</svg>
