<svg width="51" height="55" viewBox="0 0 51 55" fill="none" xmlns="http://www.w3.org/2000/svg">
<g clip-path="url(#clip0_213_346)">
<path d="M29.1427 8.41235V16.8255L43.7137 25.2387V16.8255L29.1427 8.41235ZM0 16.8255V25.2387L7.28547 29.4445V21.0321L0 16.8255ZM21.8564 21.0321L14.5709 25.2387V50.4766L21.8564 54.6832V37.8577L29.1427 42.0643V33.6511L21.8564 29.4445V21.0321Z" fill="#686868"/>
<path d="M29.1424 8.41235L7.28516 21.0321V29.4445L21.8561 21.0321V29.4445L29.1424 25.2387V8.41235ZM50.9997 12.619L43.7134 16.8255V25.2387L50.9997 21.0321V12.619ZM36.4279 29.4445L29.1424 33.6511V42.0643L36.4279 37.8577V29.4445ZM29.1424 42.0643L21.8561 37.8577V54.6832L29.1424 50.4766V42.0643Z" fill="#A8A8A9"/>
<path d="M29.1427 0L0 16.8255L7.28547 21.0321L29.1427 8.41233L43.7137 16.8255L51 12.6189L29.1427 0ZM29.1427 25.2387L21.8564 29.4444L29.1427 33.651L36.4282 29.4444L29.1427 25.2387Z" fill="#C9C9CA"/>
</g>
<defs>
<clipPath id="clip0_213_346">
<rect width="51" height="54.6832" fill="white"/>
</clipPath>
</defs>
</svg>
