<svg width="50" height="49" viewBox="0 0 50 49" fill="none" xmlns="http://www.w3.org/2000/svg">
<g clip-path="url(#clip0_213_350)">
<path d="M14.766 15.1223H12.0476L19.4586 35.9757L23.6075 24.1737L20.3908 15.1223H17.5227V13.1352H30.2236V15.1223H27.2494L34.6602 35.9757L37.3242 28.3977C40.8187 18.6889 34.46 15.6645 34.46 13.4977C34.46 11.331 36.2246 9.57456 38.4012 9.57456C38.519 9.57456 38.6333 9.58091 38.7454 9.59131C35.0573 6.12565 30.0843 4.00037 24.6122 4.00037C17.462 4.00037 11.1638 7.62835 7.47168 13.1352H14.7658V15.1223H14.766Z" fill="#C9C9CA"/>
<path d="M4.01855 24.5C4.01855 32.3483 8.45003 39.1654 14.9574 42.6101L5.66384 16.4594C4.60517 18.9282 4.01855 21.6459 4.01855 24.5Z" fill="#C9C9CA"/>
<path d="M42.5349 14.3984C42.8295 16.125 42.7403 18.0655 42.2883 20.0136H42.3702L42.0588 20.8993C41.8743 21.5388 41.6419 22.193 41.378 22.8359L34.292 42.5969C40.7857 39.148 45.2059 32.3383 45.2059 24.4999C45.2059 20.8269 44.2345 17.3801 42.5349 14.3984Z" fill="#C9C9CA"/>
<path d="M18.2607 44.0044C20.2614 44.6495 22.3954 44.9994 24.6121 44.9994C26.7263 44.9994 28.7659 44.6818 30.686 44.0926L24.6621 27.1422L18.2607 44.0044Z" fill="#C9C9CA"/>
<path d="M42.0159 7.17585C37.3673 2.54843 31.1865 0 24.6123 0C18.0381 0 11.8574 2.54843 7.20876 7.17585C2.56012 11.8033 0 17.9557 0 24.5C0 31.0442 2.56012 37.1966 7.20876 41.824C11.8574 46.4515 18.0382 48.9999 24.6124 48.9999C31.1866 48.9999 37.3673 46.4515 42.016 41.824C46.6646 37.1966 49.2248 31.0441 49.2248 24.5C49.2247 17.9557 46.6645 11.8033 42.0159 7.17585ZM24.6123 47.2716C11.9984 47.2716 1.73622 37.0563 1.73622 24.5C1.73622 11.9437 11.9984 1.72829 24.6123 1.72829C37.2262 1.72829 47.4883 11.9437 47.4883 24.5C47.4883 37.0563 37.2263 47.2716 24.6123 47.2716Z" fill="#C9C9CA"/>
</g>
<defs>
<clipPath id="clip0_213_350">
<rect width="49.2248" height="49" fill="white"/>
</clipPath>
</defs>
</svg>
