<svg width="540" height="608" viewBox="0 0 540 608" fill="none" xmlns="http://www.w3.org/2000/svg">
<path d="M59.4 452H2.4L247.2 0.199987H250.8L384.6 452H318L219.6 93.2L264.6 66.2L59.4 452ZM133.8 287.6H295.2L308.4 338H111L133.8 287.6Z" fill="black"/>
<path d="M59.4 452V476H73.8185L80.5892 463.27L59.4 452ZM2.4 452L-18.7015 440.566L-37.9006 476H2.4V452ZM247.2 0.199987V-23.8H232.907L226.098 -11.2335L247.2 0.199987ZM250.8 0.199987L273.812 -6.61501L268.723 -23.8H250.8V0.199987ZM384.6 452V476H416.738L407.612 445.185L384.6 452ZM318 452L294.855 458.348L299.696 476H318V452ZM219.6 93.2L207.252 72.6201L191.639 81.988L196.455 99.5475L219.6 93.2ZM264.6 66.2L285.789 77.4702L326.389 1.13817L252.252 45.6202L264.6 66.2ZM133.8 287.6V263.6H118.316L111.933 277.708L133.8 287.6ZM295.2 287.6L318.417 281.519L313.724 263.6H295.2V287.6ZM308.4 338V362H339.495L331.617 331.919L308.4 338ZM111 338L89.1334 328.108L73.8013 362H111V338ZM59.4 428H2.4V476H59.4V428ZM23.5015 463.434L268.302 11.6335L226.098 -11.2335L-18.7015 440.566L23.5015 463.434ZM247.2 24.2H250.8V-23.8H247.2V24.2ZM227.788 7.01499L361.588 458.815L407.612 445.185L273.812 -6.61501L227.788 7.01499ZM384.6 428H318V476H384.6V428ZM341.145 445.652L242.745 86.8524L196.455 99.5475L294.855 458.348L341.145 445.652ZM231.948 113.78L276.948 86.7798L252.252 45.6202L207.252 72.6201L231.948 113.78ZM243.411 54.9298L38.2108 440.73L80.5892 463.27L285.789 77.4702L243.411 54.9298ZM133.8 311.6H295.2V263.6H133.8V311.6ZM271.983 293.681L285.183 344.081L331.617 331.919L318.417 281.519L271.983 293.681ZM308.4 314H111V362H308.4V314ZM132.867 347.892L155.667 297.492L111.933 277.708L89.1334 328.108L132.867 347.892Z" fill="#ECECEC"/>
<path d="M178.4 458H121.4L366.2 6.19999H369.8L503.6 458H437L338.6 99.2L383.6 72.2L178.4 458ZM252.8 293.6H414.2L427.4 344H230L252.8 293.6Z" fill="black"/>
<path d="M178.4 458V482H192.818L199.589 469.27L178.4 458ZM121.4 458L100.298 446.566L81.0994 482H121.4V458ZM366.2 6.19999V-17.8H351.907L345.098 -5.23352L366.2 6.19999ZM369.8 6.19999L392.812 -0.615011L387.723 -17.8H369.8V6.19999ZM503.6 458V482H535.738L526.612 451.185L503.6 458ZM437 458L413.855 464.348L418.696 482H437V458ZM338.6 99.2L326.252 78.6201L310.639 87.988L315.455 105.548L338.6 99.2ZM383.6 72.2L404.789 83.4702L445.389 7.13817L371.252 51.6202L383.6 72.2ZM252.8 293.6V269.6H237.316L230.933 283.708L252.8 293.6ZM414.2 293.6L437.417 287.519L432.724 269.6H414.2V293.6ZM427.4 344V368H458.495L450.617 337.919L427.4 344ZM230 344L208.133 334.108L192.801 368H230V344ZM178.4 434H121.4V482H178.4V434ZM142.502 469.434L387.302 17.6335L345.098 -5.23352L100.298 446.566L142.502 469.434ZM366.2 30.2H369.8V-17.8H366.2V30.2ZM346.788 13.015L480.588 464.815L526.612 451.185L392.812 -0.615011L346.788 13.015ZM503.6 434H437V482H503.6V434ZM460.145 451.652L361.745 92.8524L315.455 105.548L413.855 464.348L460.145 451.652ZM350.948 119.78L395.948 92.7798L371.252 51.6202L326.252 78.6201L350.948 119.78ZM362.411 60.9298L157.211 446.73L199.589 469.27L404.789 83.4702L362.411 60.9298ZM252.8 317.6H414.2V269.6H252.8V317.6ZM390.983 299.681L404.183 350.081L450.617 337.919L437.417 287.519L390.983 299.681ZM427.4 320H230V368H427.4V320ZM251.867 353.892L274.667 303.492L230.933 283.708L208.133 334.108L251.867 353.892Z" fill="#ECECEC"/>
</svg>
