<svg width="52" height="52" viewBox="0 0 52 52" fill="none" xmlns="http://www.w3.org/2000/svg">
<path d="M24.0621 51.953C19.4964 51.5147 15.403 50.1577 12.1293 47.9978L11.4415 47.5439L11.2761 46.2664C11.0927 44.8442 10.9004 42.5824 10.9021 41.8382V41.353L13.0378 41.3354C14.2125 41.3257 15.5301 41.2812 15.9665 41.2335C16.6587 41.1601 16.7956 41.1727 17.047 41.3306C19.3754 42.7928 22.9323 43.7628 25.9579 43.7596C30.8059 43.7563 35.0901 41.9675 38.5484 38.5036C40.0779 36.9708 40.9184 35.8193 41.8364 33.9938C44.3576 28.9894 44.4117 23.2633 41.9879 18.254C39.5881 13.2956 34.9088 9.65273 29.5612 8.58237C28.1829 8.3051 26.2843 8.15871 25.1496 8.23986L24.2247 8.30714L24.4586 7.97563C24.5889 7.79418 25.447 6.87469 26.367 5.93358L28.0399 4.22304L27.3521 3.58286C26.3796 2.67479 25.0363 1.55346 24.0291 0.806448L23.1666 0.167901L23.4909 0.0912426C24.1326 -0.0600351 27.8773 -0.0139586 29.2174 0.161377C40.2278 1.60117 49.0161 9.60503 51.4021 20.3678C52.1831 23.8863 52.199 27.7836 51.4497 31.4249C50.5024 36.0203 48.0945 40.5517 44.7507 44.0287C40.415 48.5341 34.6067 51.3315 28.3834 51.9114C27.3456 52.0085 24.8819 52.0309 24.0625 51.953H24.0621ZM7.77014 44.4731C6.29442 42.9983 4.30045 40.6027 4.43571 40.4673C4.46097 40.4416 5.01834 40.5309 5.67227 40.6631C6.66559 40.8653 8.89995 41.2046 9.2373 41.2046C9.28823 41.2046 9.33101 41.6266 9.33264 42.1636C9.33427 43.0427 9.42635 44.3027 9.58443 45.6038C9.62884 45.9704 9.61295 46.1201 9.53147 46.1201C9.46791 46.1201 8.67382 45.3792 7.77014 44.4727V44.4731ZM10.9021 39.2041C10.9021 38.4126 11.1074 36.055 11.1836 35.9722C11.2203 35.9339 11.5307 36.2731 11.8746 36.7274C12.2169 37.1828 12.9934 38.0444 13.5997 38.6418L14.701 39.7313H10.9021V39.2041ZM8.88732 39.5658C7.24455 39.3635 3.9085 38.7217 3.64326 38.5574C3.56177 38.5064 3.65915 38.1113 3.9855 37.1669C4.41656 35.9245 5.43352 33.4829 5.59282 33.3124C5.63234 33.2708 6.16893 33.4988 6.78497 33.8205C7.40223 34.1422 8.29654 34.5724 8.77568 34.7791L9.64473 35.1518L9.58443 35.6012C9.44591 36.6491 9.33427 38.0669 9.33264 38.8216C9.33142 39.2677 9.29597 39.6261 9.25645 39.6184C9.21489 39.6102 9.04948 39.5862 8.88732 39.5654V39.5658ZM1.74585 35.3369C1.20978 33.9251 0.789815 32.4717 0.490141 30.9915C0.186604 29.4848 0.195975 29.4738 1.13185 30.2127C1.56454 30.5552 2.39366 31.1586 2.97344 31.5521C3.55199 31.9477 4.02665 32.2865 4.02665 32.304C4.02665 32.3232 3.84534 32.731 3.62411 33.2088C3.32616 33.8687 3.04427 34.5357 2.77869 35.2093C2.53545 35.8303 2.30444 36.3755 2.26329 36.4183C2.22336 36.4611 1.99112 35.9738 1.74585 35.3369V35.3369ZM8.81072 32.7946C8.05656 32.4476 6.688 31.7483 6.5014 31.6161C6.4631 31.5888 7.47231 29.9244 7.98649 29.168L8.38903 28.5739L8.45911 28.8699C8.90932 30.7558 9.18026 31.7148 9.46017 32.4125C9.64351 32.8692 9.78815 33.2423 9.78326 33.2423C9.77674 33.2407 9.33916 33.04 8.81072 32.7946ZM3.67015 29.8436C2.61001 29.1027 0.838495 27.7078 0.727266 27.5276C0.622556 27.3571 4.232 23.8561 4.51353 23.8561C4.55998 23.8561 4.95152 24.321 5.38259 24.8886C5.81569 25.457 6.39302 26.1787 6.66844 26.4923C6.94387 26.8063 7.16958 27.0835 7.16958 27.1088C7.16958 27.1341 6.82327 27.6744 6.39791 28.308C5.97459 28.9404 5.48282 29.7148 5.30803 30.0251C5.13283 30.3358 4.934 30.5906 4.86393 30.5906C4.79548 30.5906 4.25726 30.2546 3.67015 29.8436V29.8436ZM0 25.1316C0.0142601 23.8973 0.429841 21.0858 0.837273 19.4707C1.24145 17.8719 1.162 17.8829 1.89578 19.3353C2.24903 20.0379 2.73428 20.9394 2.9714 21.3407L3.40287 22.0673L2.65809 22.7058C2.24903 23.0565 1.48346 23.7681 0.956651 24.2859C0.429841 24.805 0 25.1858 0 25.1316ZM7.89604 24.8082C7.12069 23.8826 6.19419 22.5974 6.24349 22.5179C6.31031 22.4094 7.45479 21.6322 8.38577 21.0622C9.00955 20.6797 9.05762 20.6654 8.99529 20.8758C8.76631 21.6608 8.44118 23.311 8.35073 24.146C8.29206 24.6827 8.23461 25.1332 8.22198 25.1459C8.20935 25.1589 8.06308 25.006 7.89604 24.8082V24.8082ZM4.48827 19.8866C3.46969 18.1104 2.29344 15.5701 2.43033 15.4441C2.65035 15.2386 6.38365 14.1923 7.48657 14.0267L7.91641 13.9615L8.13275 15.2724C8.25091 15.9942 8.44933 17.0066 8.57522 17.5245L8.80298 18.4672L7.99626 18.9259C7.55216 19.1796 6.70185 19.7113 6.10822 20.108L5.02934 20.8298L4.48827 19.8866ZM10.5203 15.8184C10.4171 15.2676 10.321 14.7154 10.2318 14.1621L10.1491 13.6076L10.6503 13.5489C10.9273 13.517 11.6819 13.4612 12.3281 13.4265L13.5043 13.3641L13.1014 13.7943C12.4365 14.5046 11.6803 15.4588 11.1885 16.2123L10.7252 16.9206L10.5203 15.8184ZM3.9362 12.2236C4.60765 11.0848 6.72915 8.38175 7.44827 7.74647L7.66013 7.55849V11.6899L6.80045 11.8571C6.05281 12.0022 4.45486 12.3925 3.8865 12.5678C3.71293 12.622 3.71619 12.5931 3.9358 12.2236H3.9362ZM9.93768 8.88982C9.9552 7.53444 9.99472 6.40046 10.0269 6.36866C10.1369 6.25693 14.7344 7.17276 14.9079 7.33994C14.9242 7.35625 14.7857 7.87043 14.6007 8.48533C14.4145 9.10185 14.1852 9.94102 14.0898 10.3504L13.9163 11.099L12.5318 11.1602C11.7695 11.1936 10.867 11.2507 10.5264 11.2874L9.9059 11.3543L9.93768 8.88982ZM16.4994 10.905C16.4994 10.8601 16.8893 9.45049 17.0963 8.74955L17.2906 8.09347L18.4905 8.58726C20.0803 9.24171 20.044 9.21806 19.6888 9.36608C18.8596 9.71512 17.4927 10.3773 17.0726 10.6371C16.6269 10.9111 16.4994 10.9702 16.4994 10.905V10.905ZM20.9192 6.95461C20.5676 6.77805 19.8098 6.44328 19.2353 6.21086L18.1898 5.78883L18.2917 5.49728C18.4204 5.12786 19.8591 2.24134 20.1284 1.81116L20.3305 1.48822L20.9445 1.90209C21.7483 2.44685 23.2253 3.55228 23.7121 3.97594L24.0992 4.31234L23.0725 5.48464C22.509 6.12808 21.9378 6.79517 21.8025 6.96562L21.5572 7.27796L20.9192 6.95461ZM14.4858 4.68014C13.8504 4.51774 13.2122 4.36589 12.5717 4.22467L11.9321 4.09256L12.7974 3.57797C13.3138 3.27401 13.8382 2.98399 14.3701 2.70823C15.1259 2.32616 17.4051 1.38628 17.4544 1.43562C17.4707 1.45152 17.2955 1.83685 17.0633 2.29109C16.8322 2.74492 16.4692 3.51436 16.2578 4.00163C16.0459 4.48727 15.8487 4.91256 15.8181 4.94437C15.788 4.97658 15.1883 4.85711 14.4858 4.68014V4.68014Z" fill="#C9C9CA"/>
</svg>
