<svg width="48" height="45" viewBox="0 0 48 45" fill="none" xmlns="http://www.w3.org/2000/svg">
<g clip-path="url(#clip0_213_316)">
<path d="M16.0118 0.0455024H30.1986L15.4712 43.4247C15.3959 43.6463 15.2863 43.8548 15.1464 44.0428C15.0067 44.231 14.8383 44.3959 14.6471 44.5323C14.4559 44.6686 14.245 44.7746 14.0208 44.8461C13.7967 44.9175 13.5629 44.9545 13.328 44.9545H2.28705C1.92864 44.9545 1.57504 44.8699 1.25619 44.7067C0.937007 44.5441 0.661482 44.3081 0.452485 44.0184C0.243351 43.7287 0.106537 43.3938 0.0533283 43.0413C-1.24124e-05 42.6887 0.0323516 42.3285 0.146824 41.9909L13.868 1.57405C13.9429 1.35254 14.0526 1.14413 14.1928 0.95596C14.3325 0.767795 14.5015 0.602853 14.6921 0.466492C14.8832 0.330132 15.0942 0.22414 15.3184 0.152685C15.5425 0.08123 15.7763 0.0443115 16.0112 0.0443115V0.044907L16.0118 0.0455024Z" fill="url(#paint0_linear_213_316)"/>
<path d="M42.1642 44.9545H29.4253C29.2833 44.9545 29.1413 44.9414 29.001 44.9146C28.8614 44.8884 28.7241 44.8491 28.5917 44.7973C28.4592 44.7455 28.3322 44.6812 28.2117 44.6062C28.0914 44.5306 27.9784 44.4441 27.8743 44.3477L13.4183 30.9344C13.2654 30.7926 13.1589 30.6084 13.1127 30.4057C13.0664 30.2029 13.0827 29.9911 13.1594 29.7977C13.236 29.6043 13.3695 29.4383 13.5424 29.3213C13.7156 29.2046 13.92 29.1421 14.1291 29.1421H36.6257L42.163 44.9551L42.1642 44.9545Z" fill="#C9C9CA"/>
<path d="M30.2495 0.0455601L20.3185 29.1451L36.5449 29.1415L42.1109 44.9545H29.42C29.2887 44.9533 29.1575 44.9414 29.028 44.9182C28.8986 44.895 28.7715 44.861 28.648 44.8158C28.4005 44.7261 28.1702 44.595 27.9672 44.4281L18.2088 35.3795L15.4771 43.3837C15.4064 43.5838 15.3093 43.7737 15.1882 43.9482C14.9456 44.2992 14.6137 44.58 14.2263 44.7622C14.0334 44.8528 13.8292 44.9175 13.6191 44.9545H2.29353C1.93154 44.9557 1.57433 44.87 1.25249 44.7044C0.930599 44.539 0.653519 44.2991 0.444673 44.0048C0.235827 43.7106 0.101355 43.3707 0.0526235 43.0139C0.0040684 42.657 0.0425048 42.2937 0.164699 41.9546L13.8637 1.60447C13.935 1.37879 14.0423 1.16621 14.1813 0.974477C14.3198 0.782739 14.4888 0.613628 14.6806 0.474291C14.8724 0.334953 15.0857 0.22658 15.3117 0.153934C15.5376 0.0812877 15.7744 0.0443692 16.0123 0.0455601H30.2501H30.2495Z" fill="url(#paint1_linear_213_316)"/>
<path d="M47.8528 41.9909C47.9674 42.3287 47.9996 42.6887 47.9469 43.0413C47.8937 43.3937 47.7571 43.7286 47.5484 44.0184C47.3393 44.3079 47.0639 44.5438 46.7449 44.7066C46.4259 44.8694 46.0724 44.9544 45.7138 44.9545H29.9022C30.2606 44.9545 30.6142 44.8693 30.9336 44.7068C31.2525 44.5442 31.5282 44.3078 31.7374 44.0184C31.9465 43.729 32.0832 43.3938 32.1365 43.0413C32.1899 42.6888 32.1575 42.3285 32.043 41.9909L18.3213 1.57289C18.1702 1.12765 17.8824 0.740702 17.4984 0.466522C17.3078 0.330162 17.0968 0.224766 16.8733 0.15331C16.6497 0.0818553 16.416 0.0455322 16.1816 0.0455322H31.9927C32.2276 0.0455322 32.4607 0.0818553 32.6849 0.15331C32.9085 0.224766 33.1194 0.330757 33.3106 0.466522C33.5012 0.602882 33.6696 0.767825 33.8093 0.955394C33.9489 1.14296 34.058 1.35137 34.1335 1.57289L47.8552 41.9909H47.8528Z" fill="url(#paint2_linear_213_316)"/>
</g>
<defs>
<linearGradient id="paint0_linear_213_316" x1="21.1894" y1="3.37412" x2="6.61652" y2="46.7036" gradientUnits="userSpaceOnUse">
<stop stop-color="#C9C9CA"/>
<stop offset="1" stop-color="#6B6B6B"/>
</linearGradient>
<linearGradient id="paint1_linear_213_316" x1="25.7862" y1="23.5364" x2="22.3806" y2="24.6991" gradientUnits="userSpaceOnUse">
<stop stop-opacity="0.3"/>
<stop offset="0.1" stop-opacity="0.2"/>
<stop offset="0.3" stop-opacity="0.1"/>
<stop offset="0.6" stop-opacity="0.1"/>
<stop offset="1" stop-opacity="0"/>
</linearGradient>
<linearGradient id="paint2_linear_213_316" x1="23.9041" y1="2.11178" x2="39.903" y2="45.0115" gradientUnits="userSpaceOnUse">
<stop stop-color="#C9C9CA"/>
<stop offset="1" stop-color="#6A6A6A"/>
</linearGradient>
<clipPath id="clip0_213_316">
<rect width="48" height="45" fill="white"/>
</clipPath>
</defs>
</svg>
