<svg width="38" height="52" viewBox="0 0 38 52" fill="none" xmlns="http://www.w3.org/2000/svg">
<path d="M34.3419 47.9395L18.9473 52L3.55248 47.9395L0 10.2384H37.8948L34.3419 47.9395Z" fill="#C9C9CA"/>
<path d="M18.9473 13.2921V48.7614L18.9821 48.7707L31.4403 45.4845L34.3159 13.2921H18.9473Z" fill="#686868"/>
<path d="M10.2107 4.69939V2.45543H13.5528V0H7.7041V6.94003H13.5528V4.69939H10.2107ZM19.565 2.45543H21.9016V0H16.0523V2.45543C16.8348 3.22201 17.243 3.58892 18.3748 4.69762C17.7131 4.69762 16.0523 4.69994 16.0523 4.69983V6.94003H21.9016V4.69939L19.565 2.45543ZM27.8553 2.45543H30.1918V0H24.3423V2.45543C25.1248 3.22201 25.5332 3.58892 26.665 4.69762C26.0036 4.69762 24.3423 4.69994 24.3423 4.69983V6.94003H30.1919V4.69939L27.8553 2.45543Z" fill="#C9C9CA"/>
<path d="M18.9325 22.7189L7.91406 27.2141L8.27946 31.6647L18.9325 27.2028L30.2645 22.4567L30.7344 17.9039L18.9325 22.7189Z" fill="white"/>
<path d="M7.91406 27.2142L8.27946 31.6648L18.9325 27.2029V22.719L7.91406 27.2142Z" fill="url(#paint0_linear_226_42)"/>
<path d="M30.7345 17.9041L18.9326 22.7189V27.2029L30.2647 22.4567L30.7345 17.9041Z" fill="url(#paint1_linear_226_42)"/>
<path d="M7.93164 27.214L8.29715 31.6646L24.6428 31.7156L24.2772 37.6497L18.8985 39.1331L13.728 37.8542L13.4147 34.171H8.61044L9.23715 41.2816L18.9507 44.0951L28.6117 41.3326L29.8651 27.214H7.93164Z" fill="url(#paint2_linear_226_42)"/>
<path opacity="0.05" d="M18.9325 27.214H7.91406L8.27946 31.6646L18.9325 31.6979V27.214ZM18.9325 39.1189L18.8803 39.1332L13.7105 37.8543L13.3972 34.1711H8.59298L9.21957 41.2817L18.9325 44.0952V39.1189Z" fill="#35363A"/>
<path d="M6.92188 17.9041H30.7345L30.2647 22.4569H7.49625L6.92188 17.9041Z" fill="url(#paint3_linear_226_42)"/>
<path opacity="0.05" d="M18.9326 17.9041H6.92188L7.49625 22.4569H18.9326V17.9041Z" fill="black"/>
<defs>
<linearGradient id="paint0_linear_226_42" x1="13.4233" y1="31.6649" x2="13.4233" y2="22.7191" gradientUnits="userSpaceOnUse">
<stop offset="0.387" stop-color="#2D2E32"/>
<stop offset="1" stop-color="#D1D3D4"/>
</linearGradient>
<linearGradient id="paint1_linear_226_42" x1="24.8334" y1="27.203" x2="24.8334" y2="17.9042" gradientUnits="userSpaceOnUse">
<stop offset="0.387" stop-color="#2D2E32"/>
<stop offset="1" stop-color="#D1D3D4"/>
</linearGradient>
<linearGradient id="paint2_linear_226_42" x1="7.93164" y1="35.6546" x2="29.865" y2="35.6546" gradientUnits="userSpaceOnUse">
<stop stop-color="#2D2E32"/>
<stop offset="1" stop-color="#2D2E32"/>
</linearGradient>
<linearGradient id="paint3_linear_226_42" x1="6.92188" y1="20.1805" x2="30.7344" y2="20.1805" gradientUnits="userSpaceOnUse">
<stop stop-color="#2D2E32"/>
<stop offset="1" stop-color="#2D2E32"/>
</linearGradient>
</defs>
</svg>
