<svg width="31" height="47" viewBox="0 0 31 47" fill="none" xmlns="http://www.w3.org/2000/svg">
<g clip-path="url(#clip0_213_319)">
<path d="M7.75138 47C12.0285 47 15.4998 43.4907 15.4998 39.1667V31.3334H7.75138C3.47424 31.3334 0.00292969 34.8427 0.00292969 39.1667C0.00292969 43.4907 3.47424 47 7.75138 47Z" fill="#686868"/>
<path d="M0.00292969 23.5C0.00292969 19.176 3.47424 15.6666 7.75138 15.6666H15.4998V31.3333H7.75138C3.47424 31.3333 0.00292969 27.824 0.00292969 23.5Z" fill="#686868"/>
<path d="M0.00292969 7.83333C0.00292969 3.50933 3.47424 0 7.75138 0H15.4998V15.6667H7.75138C3.47424 15.6667 0.00292969 12.1573 0.00292969 7.83333Z" fill="#C9C9CA"/>
<path d="M15.5 0H23.2485C27.5256 0 30.9969 3.50933 30.9969 7.83333C30.9969 12.1573 27.5256 15.6667 23.2485 15.6667H15.5V0Z" fill="#C9C9CA"/>
<path d="M30.9969 23.5C30.9969 27.824 27.5256 31.3333 23.2485 31.3333C18.9713 31.3333 15.5 27.824 15.5 23.5C15.5 19.176 18.9713 15.6666 23.2485 15.6666C27.5256 15.6666 30.9969 19.176 30.9969 23.5Z" fill="#686868"/>
</g>
<defs>
<clipPath id="clip0_213_319">
<rect width="31" height="47" fill="white"/>
</clipPath>
</defs>
</svg>
