<svg width="56" height="40" viewBox="0 0 56 40" fill="none" xmlns="http://www.w3.org/2000/svg">
<g clip-path="url(#clip0_213_317)">
<path d="M20.7642 8.78878L17.0548 9.36253L13.6708 10.7757L10.7966 12.4975L8.06137 15.6763L6.51634 17.235L5.02184 17.7596L4.62678 16.8396L5.31781 15.8898L5.47312 14.5502L5.93578 14.5682L6.44153 15.0075L6.30503 13.6429L5.74437 13.2846L5.76187 12.7646L4.43384 13.48L3.23138 14.8313L2.98047 16.0388L3.49497 17.0059L3.97447 18.6486L4.94987 19.0884L5.97581 19.0404L6.94881 18.5021L6.29978 21.6369L6.94881 25.1248L6.23437 26.7352L3.89419 29.1367L4.31025 30.5713L5.41888 32.2336L7.50903 33.6342L8.61766 33.779L9.85031 33.8186L9.08119 36.8255L11.9092 37.929L15.4324 38.3707L16.6377 37.6202L16.7304 35.589L18.0751 33.4696L18.1678 31.7919L21.413 32.0127L24.4263 31.748L21.413 33.4696L21.9231 35.545L23.8236 38.3707L25.678 39.1211L27.1615 38.5471L27.764 37.3992L30.8702 35.1475L31.4729 35.633L36.3407 35.8098L37.3142 35.0594L37.4067 33.7344L37.0825 33.1609L36.8504 29.5844L35.2279 26.4938L35.5062 25.125L36.4796 25.6109L39.2149 28.039L40.5593 28.1275L42.0427 27.5534L43.5264 26.4938L44.268 24.198L48.6259 24.4627L51.2684 23.4917L53.4008 21.593L54.9307 18.8554L55.3013 15.6325L54.9769 11.8794L54.1426 8.5242L53.3081 7.46462L52.1493 7.11128L50.1093 9.23045L48.2549 9.84857L46.6322 7.28774L45.0098 5.87503L44.1289 5.34524L40.6055 2.56357L37.7777 1.10649L34.9497 0.885864L31.6584 1.41566L28.784 2.43086L26.7905 3.97628L25.2144 5.7867L23.592 6.22837L20.7637 8.78899" fill="#C9C9CA"/>
<path d="M10.007 16.7573C6.83031 20.2863 7.53599 24.5658 8.41646 28.7594C7.9467 27.6288 7.47682 26.4982 7.00684 25.3677L6.4873 22.2579C6.53674 21.1979 6.58596 20.1379 6.63584 19.0781L7.97109 16.0396L9.9744 13.2129L13.0907 10.74L16.5036 9.39729L20.5105 8.90271L16.8005 12.9304C13.8216 13.8504 12.0652 14.4704 10.0068 16.7573" fill="#C9C9CA"/>
<path d="M24.9628 6.00522C22.7545 8.05731 21.5481 9.60522 20.1424 12.0079C19.1373 13.7267 18.0096 15.3823 16.9524 17.0771C16.418 17.935 16.3675 18.6542 16.2076 19.6436L14.6494 17.8769C14.897 17.1702 15.1442 16.4636 15.3914 15.7571L17.9143 11.4467L23.2566 6.42939C23.8253 6.28793 24.3941 6.14689 24.9628 6.00522M35.8699 0.917725C34.1009 1.54918 31.1635 1.75731 30.9596 3.69064C30.8146 5.06397 31.0684 5.75397 31.9374 7.20689C29.7909 5.09127 29.2599 5.41856 25.1114 6.07606L26.892 3.67356L30.0083 1.83606L34.0151 0.988141L35.8701 0.917725" fill="#C9C9CA"/>
<path d="M40.7503 27.0719C41.3392 27.4182 41.3265 27.669 41.2281 27.9063C41.6925 27.7292 42.1571 27.5521 42.6215 27.3757L43.5245 26.2209L44.1945 24.5759L43.3381 23.9627L39.5953 24.4177C39.503 24.6577 39.4098 24.898 39.3169 25.1384C39.3433 25.4794 39.3702 25.8209 39.3965 26.1619C39.5159 26.3644 39.6356 26.5665 39.7552 26.7688C39.941 26.8571 40.1265 26.9459 40.3124 27.0342C40.4587 27.0467 40.6044 27.0596 40.7503 27.0719M40.4021 20.9763C38.5259 21.4919 38.5405 21.634 37.9866 23.4067C38.7179 22.2892 39.2593 21.7252 40.4021 20.9763ZM52.8761 7.7115C52.5427 7.85837 52.2176 7.92879 52.0094 8.21942C51.5605 8.84483 51.176 9.37087 50.4337 9.80983C50.0599 10.0311 49.6734 10.1744 49.277 10.2921C48.9482 10.3894 48.7505 10.3023 48.4707 10.4942C48.6369 10.5213 48.803 10.5492 48.969 10.5769H50.0671L51.421 9.78087L52.2172 8.98442L52.8761 7.7115M22.9922 11.6765C22.2544 13.6 21.6093 15.2488 20.4915 16.99C21.9238 15.52 22.7925 14.2705 23.613 12.6086C23.932 11.9627 23.9921 11.2052 24.88 11.4869C24.9198 12.1319 25.0629 12.7761 25.1027 13.4207C25.5824 10.1461 26.9352 8.77629 30.0797 7.50525L27.412 7.80879L24.9034 8.33962L23.6692 10.0459L22.9922 11.6765M29.0842 11.6007C29.7623 14.6402 30.7388 17.5577 31.163 20.6457C31.4384 22.6521 31.4683 23.6161 30.4085 25.3473C29.25 25.2759 28.5307 25.4002 27.4101 25.75C22.9491 27.1427 20.3904 29.1907 17.3848 25.0644L20.2635 26.3565C20.9475 26.2284 21.6316 26.1007 22.3154 25.9721C23.5233 25.3025 24.731 24.6325 25.939 23.9627L28.7657 23.4315L29.6816 19.7917L29.0045 14.9757C28.9783 14.2173 28.9516 13.459 28.9249 12.7007C28.9783 12.334 29.0315 11.9673 29.0842 11.6009M36.7686 30.409C36.3939 32.8786 37.6316 34.2061 37.1191 34.8882C36.974 35.0811 36.7774 35.4182 36.558 35.5107C35.7738 35.8405 34.6955 35.4488 34.6188 35.6419H32.0307L30.9956 35.2248L32.5881 33.4425C33.1057 32.3684 33.6235 31.2938 34.1408 30.2192L35.1361 26.9584H35.6539L36.7686 30.409" fill="#C9C9CA"/>
<path d="M32.4188 23.2296C32.629 24.3508 32.9941 24.6173 33.548 25.7027C33.1794 27.4735 32.5873 29.5791 31.8746 31.1416C31.574 31.8006 31.3316 32.1639 30.8014 32.6731C29.9067 33.5335 29.0026 34.2827 27.9883 35.0285C27.2576 35.5646 26.748 35.2958 25.8469 35.1744C25.4637 35.8358 25.358 36.2035 24.6525 36.5394C23.568 37.0556 22.5974 35.9429 21.746 35.2879C22.3607 36.2025 22.9754 37.1164 23.5896 38.0308C24.0145 38.41 24.4393 38.7889 24.8639 39.1683L25.939 39.3202L27.372 38.4856C27.6245 38.0308 27.8765 37.5756 28.1287 37.1208C28.6596 36.7416 29.1907 36.3625 29.7212 35.9829C30.3718 35.4523 31.0221 34.9212 31.6725 34.3904L32.9066 32.7219L34.0212 30.7502C34.4994 29.3852 34.9771 28.02 35.4551 26.655C35.4947 26.1366 35.5343 25.6185 35.5743 25.1C34.9771 24.8475 34.3799 24.5944 33.7825 24.3416C33.3446 23.95 32.8568 23.6214 32.4188 23.2296M18.1349 31.1294C20.1443 31.1294 22.2666 31.0231 24.1074 30.2191C24.628 29.4754 25.1423 28.8675 25.7795 28.2098C25.1996 29.2531 25.0176 29.8427 24.8639 31.0156L24.2667 31.85C22.7536 31.8877 21.2407 31.9256 19.7276 31.9637C19.2363 31.9129 18.7454 31.8625 18.2543 31.8121C18.2012 31.761 18.1482 31.7106 18.0951 31.6602C18.1086 31.4831 18.1218 31.3062 18.1349 31.1294M17.8564 29.8023L17.7002 28.4556C17.357 30.4239 17.4395 31.7431 16.4884 33.5062C15.7779 34.29 14.9031 35.0033 13.9012 35.3852C13.9859 35.8685 14.0112 36.1706 13.962 36.525C13.7855 37.8 11.108 37.2366 10.0064 37.1858L15.308 38.4858L16.5024 38.0308C16.6354 37.2979 16.7681 36.5644 16.9007 35.8314L18.0155 33.8598L18.2145 32.6462L17.8562 29.8025M14.8698 18.6916C14.8145 19.6489 14.7495 20.0479 15.1927 20.8929C15.756 21.9671 16.4477 22.9766 17.0597 24.0383L17.2588 21.9148C16.4628 20.8402 15.6663 19.766 14.87 18.6919M6.69667 25.921C6.52408 26.2702 6.35214 26.6198 6.17955 26.9691C6.6538 28.491 7.07576 29.455 7.97898 30.7844C7.82148 31.3229 7.7038 31.5585 7.34198 31.9975C6.54705 31.8812 5.84114 31.8475 5.03548 31.85C5.9247 32.5069 6.81392 33.1646 7.70314 33.8219C8.14108 33.7456 8.57923 33.6698 9.01717 33.5941L10.3312 32.3429L8.4598 29.5746C7.8718 28.3569 7.28423 27.1387 6.69667 25.921M52.8818 7.2081C53.4234 9.52831 54.1221 11.6698 54.0571 14.0464C53.9775 16.9621 53.381 20.6452 50.5442 22.4033C47.3675 24.3725 43.6383 23.441 40.153 22.5973L44.4133 24.2658C45.7405 24.3291 47.0679 24.3925 48.395 24.4554C49.2976 24.2027 50.2001 23.95 51.1023 23.6971C51.8058 23.1408 52.5093 22.585 53.2128 22.0285L54.8053 18.8435L55.4025 15.1652C55.2434 13.9641 55.0837 12.7635 54.9247 11.5627L54.0488 7.99831C53.6599 7.73477 53.271 7.47123 52.8818 7.2081M5.47473 14.1239C4.03273 15.0179 3.46617 15.4104 3.62433 17.0673L4.05526 18.5558L4.66623 18.9496L5.42092 19.1891L6.78636 18.881C7.0202 18.1908 7.25361 17.5008 7.48701 16.8106L5.5467 17.7177H5.09761C4.92998 17.4724 4.76227 17.2271 4.59448 16.9819L5.20545 16.1262L5.52876 14.5006C5.66658 14.5404 5.80439 14.5806 5.94198 14.6202C6.10976 14.746 6.27733 14.8714 6.44511 14.9966L6.37314 14.1412L6.03189 13.5937C5.91814 13.5021 5.80439 13.4112 5.69064 13.3198L5.47473 14.1239M37.83 1.06873C39.1102 2.20081 40.681 3.18456 41.7048 4.56789C42.1009 5.10331 42.541 5.37727 41.6982 6.13373C42.5887 5.89143 42.9199 5.91768 43.633 5.99998C44.9302 6.14956 46.146 7.90581 46.2235 9.16414C46.2082 9.28185 45.8632 9.54914 44.8602 9.81289C44.8406 9.84956 44.2941 9.74164 44.3077 9.77706C44.412 10.0485 44.5511 10.0902 44.764 10.2171C44.8099 10.5191 44.8397 10.9852 45.0558 11.3156C45.6869 11.3048 46.3038 11.3704 46.9217 11.4869C47.1295 11.8154 47.0985 12.1439 47.081 12.4727L47.7976 12.3591C47.7315 11.8408 47.665 11.3227 47.5988 10.8044C47.811 10.4631 48.0231 10.1216 48.2358 9.78081L47.3199 7.80873C46.736 7.27789 46.1522 6.74685 45.5679 6.21602L45.3995 6.2081C44.7427 5.82426 44.0859 5.44037 43.4292 5.05643L40.2157 2.55268L37.83 1.06873M39.9863 10.4119C39.9187 10.5244 39.8167 10.7039 39.6861 10.8285C40.2192 11.3087 40.4824 11.6304 40.6725 12.3098C40.0696 12.5946 39.4672 12.8798 38.8645 13.1644L37.3346 14.5612C36.6632 14.2171 36.4961 13.9529 36.1713 13.2966C35.7928 13.3923 35.4347 13.4841 35.1224 13.3748C35.3205 13.3762 35.4422 13.3291 35.6404 13.2125L36.6138 12.2494C37.1869 11.836 37.7601 11.4223 38.3332 11.0091L39.4586 10.6598C39.6019 10.6037 39.843 10.4681 39.9863 10.4119" fill="#C9C9CA"/>
<path d="M41.6505 12.1247C39.7329 13.1081 37.8967 14.0968 36.9163 15.9641C36.9163 13.5939 39.4151 12.5506 41.6503 12.1245M36.5357 7.46204C35.1118 8.38662 34.1051 10.2525 34.2316 12.0708C33.7678 10.4962 33.9321 9.00849 35.356 7.92099C35.5966 7.80995 35.8366 7.69849 36.077 7.58745C36.2299 7.54579 36.3826 7.50412 36.5357 7.46204" fill="#C9C9CA"/>
<path d="M55.6944 11.755C55.4363 10.2044 55.0082 8.69921 54.4141 7.61692C54.3419 7.48463 54.2321 7.35046 54.096 7.22254C53.8009 6.94546 53.3641 6.68296 52.9128 6.53525C52.4346 6.37858 51.9304 6.34671 51.5301 6.54588C51.4262 6.59796 51.3295 6.66463 51.2435 6.74796C50.9843 6.99796 50.7656 7.30213 50.5466 7.6065C50.3031 7.94567 50.0581 8.2865 49.765 8.52462C49.4253 8.80129 49.0002 8.96921 48.5993 9.12254C48.4305 8.73264 48.2276 8.35694 47.9927 7.99942C47.7186 7.58317 47.4064 7.19338 47.063 6.80358C46.8118 6.51648 46.5269 6.25765 46.214 6.03213C45.9178 5.81692 45.6146 5.63567 45.2616 5.42525C44.3151 4.86067 43.509 4.18733 42.6869 3.50025C42.3133 3.18817 41.9359 2.87317 41.5669 2.58337C39.6091 1.04587 37.783 0.30025 35.83 0.183375C33.8903 0.0671248 31.8421 0.574625 29.4239 1.54421C28.2566 2.01192 27.3899 2.56483 26.6348 3.22963C25.9136 3.86504 25.3013 4.59671 24.6282 5.45108C24.2366 5.47754 23.8897 5.53275 23.5356 5.66775C23.1453 5.8165 22.7524 6.05733 22.2817 6.45296C21.954 6.72829 21.6331 7.01079 21.3192 7.30025C21.0316 7.56599 20.7491 7.83665 20.4717 8.11212C18.2702 8.449 16.4765 8.82087 14.87 9.41337C13.2272 10.0196 11.7791 10.8534 10.2918 12.1092C9.70616 12.6019 9.17229 13.1478 8.69774 13.739C8.24537 14.3034 7.85818 14.8967 7.51846 15.5223C7.22096 15.8359 6.92281 16.1523 6.60015 16.4292C6.28559 16.699 5.95024 16.9263 5.57443 17.064L5.57465 17.0642C5.35612 17.1444 5.26577 17.1913 5.25593 17.1882C5.24499 17.1823 5.23887 17.1511 5.22356 17.0936C5.76321 16.6032 5.84809 15.8825 5.89796 15.1671C5.96271 15.2409 6.02484 15.3317 6.08937 15.4267C6.16068 15.5315 6.23374 15.6396 6.32124 15.7448L6.68765 16.185L6.81627 15.6359C6.92434 15.1757 7.00527 14.563 6.87927 14.0317C6.7979 13.6869 6.6299 13.3796 6.33721 13.1619C6.36521 13.0923 6.39168 13.0282 6.41771 12.9648C6.50959 12.7409 6.60431 12.5111 6.68459 12.294L6.8434 11.8638L6.3709 11.9417C5.74221 12.0459 4.39121 12.753 3.43965 13.6932C3.08637 14.0425 2.78252 14.4286 2.58324 14.8336C2.37587 15.255 2.2829 15.6961 2.3634 16.1373C2.4334 16.5232 2.63618 16.9019 3.00434 17.259C3.07149 17.5167 3.1334 17.7403 3.19968 17.9419C3.27559 18.1713 3.35718 18.3765 3.45934 18.5786C3.73627 19.1269 4.17771 19.4619 4.68871 19.6182C5.09931 19.7438 5.55343 19.75 5.99881 19.6571C5.90838 20.1624 5.85386 20.673 5.83562 21.1853C5.8074 21.9009 5.83496 22.6915 5.91765 23.609C5.93581 23.8105 5.96315 24.0319 5.99837 24.2728C6.02899 24.4782 6.06531 24.6798 6.10446 24.88C6.02134 25.0963 5.93756 25.313 5.85399 25.5292L5.46527 26.5369L4.60996 27.3442C4.34374 27.5948 4.07752 27.8461 3.81152 28.0971C3.78965 28.118 3.69974 28.2 3.61837 28.2748C3.07915 28.769 2.9724 28.8671 3.12552 29.7367C3.22362 30.2932 3.41436 30.8312 3.69056 31.3305C3.95524 31.8107 4.31049 32.2782 4.76637 32.7136C5.33512 33.2565 6.26743 33.9311 7.24349 34.2844C7.80131 34.4861 8.37618 34.5848 8.91584 34.5023C8.88827 34.5815 8.86159 34.6603 8.83118 34.7398C8.74577 34.9654 8.6509 35.1877 8.54681 35.4061C7.88465 36.7884 8.56431 37.5103 9.62218 37.9696C10.1505 38.1988 10.7785 38.3546 11.3619 38.4996C11.4813 38.5288 11.6008 38.5588 11.7513 38.5975C12.4425 38.7755 13.6371 39.1023 14.7282 39.168C15.9191 39.2396 16.9932 39.0055 17.2811 37.9875C17.3948 37.584 17.4611 37.275 17.488 36.9723C17.5127 36.6915 17.5033 36.4078 17.4687 36.0565C17.8082 35.3398 17.9522 35.1384 18.2005 34.7928C18.249 34.7244 18.3079 34.6428 18.3256 34.6169C18.5918 34.2413 18.7165 33.9746 18.7618 33.6744C18.8055 33.3846 18.7683 33.0959 18.7134 32.6546C18.7082 32.6128 18.7003 32.5515 18.6887 32.4705C19.3744 32.5553 20.0649 32.6003 20.7563 32.6055C21.1033 32.6075 21.45 32.5978 21.7967 32.5805C21.7081 32.6236 21.6213 32.6665 21.5263 32.713L21.3973 32.7761C20.4776 33.2265 20.4394 34.0796 20.7272 34.9573C20.9867 35.7488 21.5209 36.5569 21.856 37.0484C22.5604 38.0823 23.2326 38.9575 24.0476 39.4332C24.9019 39.9317 25.8779 39.9905 27.1377 39.3411C27.7786 39.0107 27.9808 38.6738 28.2529 38.2196C28.3362 38.0811 28.4281 37.93 28.5305 37.7811C28.7952 37.614 29.4543 37.0963 30.1011 36.5869C30.3214 36.4136 30.5415 36.2411 30.7897 36.0484C30.9608 36.1682 31.1673 36.2513 31.4169 36.308C31.7411 36.3819 32.1272 36.4153 32.5898 36.4469C32.9361 36.4711 34.0653 36.4703 34.7948 36.47C35.0201 36.47 35.2072 36.47 35.3194 36.4707C36.0726 36.475 36.6805 36.4373 37.1398 36.1894C37.6294 35.925 37.9197 35.4569 37.9831 34.6173C38.0107 34.2444 38.0159 34.0144 37.9615 33.7796C37.9107 33.5596 37.8116 33.3603 37.6414 33.0686C37.6311 32.7057 37.6209 32.3429 37.6108 31.98C37.6003 31.5953 37.5889 31.21 37.5784 30.8253C37.5655 30.3715 37.513 30.0028 37.4163 29.64C37.3205 29.2798 37.1836 28.9334 37.0003 28.5175C36.8863 28.2556 36.7785 27.9912 36.677 27.7246L36.4127 27.8167L36.4534 27.8025L36.677 27.7246V27.7236C36.5195 27.319 36.3641 26.925 36.1467 26.5036C36.1607 26.4223 36.1749 26.3348 36.1887 26.2415L36.6087 26.6269L37.2278 27.195C37.6998 27.6282 38.1314 28.0221 38.6385 28.3067C39.1628 28.6015 39.7524 28.7725 40.5158 28.738C41.3151 28.7021 42.1704 28.3815 42.8746 27.8867C43.5558 27.4078 44.1024 26.7619 44.3306 26.0471L44.5283 25.4271L44.6863 24.9323C45.8071 25.1132 47.0103 25.1715 48.1723 25.0557C49.2936 24.9434 50.3768 24.6715 51.3111 24.1969C52.6844 23.499 53.7141 22.4711 54.4541 21.2505H54.4546C55.2814 19.8863 55.7445 18.2788 55.9204 16.6246C56.0615 15.298 55.9845 13.4944 55.6944 11.755V11.755ZM41.1723 22.9046C40.5263 22.6975 40.0772 22.3955 39.5098 22.0548C39.6642 22.718 39.7344 23.4192 39.5288 24.0811C39.2024 25.1315 38.6752 26.8498 40.1726 27.1669C40.7424 27.2873 41.001 27.27 41.8053 26.8746C41.1543 27.015 40.826 26.9809 40.3784 26.9017C39.9729 26.8307 39.7578 26.5855 39.6445 26.2961C39.7863 26.3934 40.0173 26.4463 40.4123 26.5369C41.5223 26.7919 42.5799 26.2828 42.7869 25.5498C42.9072 25.1215 42.8868 24.8965 43.1426 24.3128C43.3722 24.3805 43.6096 24.4419 43.8533 24.4982L43.4407 25.7792C43.0841 26.8875 41.694 27.7813 40.4668 27.7607C39.3324 27.7417 38.6129 27.0648 37.8296 26.4013C37.2901 25.9438 36.7708 25.5065 36.2563 25.0732C34.8443 24.6488 33.7125 24.153 32.4019 23.229C33.3347 24.2728 33.9671 24.8507 35.2678 25.37C35.0788 27.2075 34.4081 28.5475 33.8365 30.3061C33.5775 31.1011 31.535 34.2875 30.9689 34.5982C30.5653 34.8196 28.037 36.8475 27.5616 37.1153C27.2073 37.5632 26.8964 38.1823 26.3638 38.4503C24.7411 39.2675 23.6983 37.7028 22.8251 36.3813C22.4276 35.7792 21.3233 34.045 22.2858 33.5592C23.1958 33.1003 23.7055 32.7723 24.6341 32.1915C24.7706 32.4284 25.0045 32.6571 25.1569 32.8936L25.0559 32.1173C24.9946 31.6486 24.9972 31.268 25.0362 30.7963C25.0742 30.3396 25.1119 29.883 25.1495 29.4261C25.0097 29.8905 24.7306 30.3546 24.5912 30.8186C24.5355 31.0044 24.4893 31.1544 24.4626 31.2936C22.3792 31.699 20.311 31.7242 18.2271 31.3703C18.0941 30.6355 17.9323 29.8698 17.7964 29.3209C17.7553 29.9355 17.7818 31.635 17.7785 32.5867C17.7759 33.3238 17.7435 33.5763 17.3441 34.2034C16.9704 34.7905 16.8123 34.9238 16.2888 35.9159C16.3326 36.5419 16.3332 36.9555 16.1586 37.5496C15.8684 38.5373 12.9386 37.7721 12.166 37.5705C11.2142 37.3225 9.24681 36.9538 9.74162 35.7455C10.1769 34.6821 10.453 33.5609 10.6658 32.073C8.92218 29.6807 7.30081 26.4025 6.98952 23.498C6.74781 21.2428 6.89284 19.8546 7.40515 18.475C8.21715 16.2892 9.35334 14.3971 11.176 12.8736C13.6347 10.8188 15.9329 9.99379 19.5318 9.47192C18.6664 10.3948 17.8102 11.3702 16.877 12.4163C15.9322 13.4753 15.3711 14.5448 14.7711 15.7034C13.9425 17.3032 13.9604 17.9119 15.0588 19.3165C16.0053 20.5269 16.5163 21.0717 16.9297 22.2561C16.5885 22.9261 16.4642 23.4925 16.3496 24.4073C17.5086 25.6142 18.37 26.4409 19.4952 26.6955C20.5993 26.9455 21.5209 26.8971 22.5087 26.4163C24.7021 25.3484 26.7317 23.9692 29.206 23.9121C30.3507 21.2321 30.235 18.9925 29.6855 16.3994C29.3101 14.6284 29.1594 12.9515 29.0428 11.1461C28.5788 13.0055 28.4916 14.6405 28.8359 16.4928C29.2511 18.7246 29.5737 21.1907 28.4191 23.1523C26.1816 23.3155 24.2642 24.6119 22.2478 25.6065C21.4371 26.0065 20.5931 26.0455 19.6961 25.8109C18.8633 25.593 18.3013 25.0682 17.4042 24.0828C17.39 23.0934 17.6245 22.6369 18.1016 21.7407C18.8681 20.3017 19.714 18.9623 20.6424 17.5467C19.5057 18.8534 18.4286 19.9453 17.5339 21.2592C17.1918 20.3313 16.7027 19.86 15.8926 18.815C15.1014 17.7944 15.0187 17.3478 15.6105 16.1665C16.2052 14.9796 16.7097 13.9365 17.7223 12.8952C19.4716 11.0959 21.0744 9.09337 22.9876 7.32129C24.0264 6.35921 24.4482 6.39233 25.8261 6.19358C27.0716 6.01358 28.2875 5.78671 29.5575 5.50588C28.3292 5.61483 27.1419 5.65483 25.946 5.68296L25.9088 5.684C27.0856 4.25296 27.7684 3.45546 29.6791 2.66463C34.384 0.718792 37.3735 0.508375 41.0692 3.46692C42.0271 4.234 42.8636 4.97837 43.8347 5.63983C43.4825 5.66858 43.1791 5.72879 42.7777 5.87879C43.2661 5.79004 43.8303 5.87796 44.3374 5.96629C44.4796 6.05421 44.6261 6.14004 44.7755 6.224C45.4613 6.60879 45.8505 6.82129 46.3142 7.4365C46.8042 8.08671 47.2128 8.7365 47.5727 9.45275C47.3369 9.37233 47.1389 9.30463 46.9626 9.25483C46.766 9.16899 46.5501 9.13072 46.3342 9.14344C46.1184 9.15616 45.9091 9.21947 45.7251 9.32775L45.6967 9.34025C45.3174 9.51629 44.7298 9.71671 44.3367 9.77754C44.5373 9.84337 44.9809 9.86817 45.1901 9.78921C45.2181 9.77879 45.2465 9.77046 45.2758 9.764C45.1788 9.92118 45.1191 10.0967 45.1008 10.2782C45.0763 10.5178 45.125 10.7591 45.241 10.973L45.2421 10.9752C45.2776 11.0548 45.327 11.128 45.3812 11.1809C45.2016 11.244 45.0181 11.3161 44.8289 11.3942C45.7059 11.2671 46.4964 11.2453 47.352 11.3525C47.4084 11.6094 47.4653 11.8817 47.5182 12.1586L47.2001 12.1823C47.1916 12.1829 47.1831 12.1836 47.1746 12.1844C46.7696 11.8763 46.3186 11.9282 45.7024 12.0621C43.8281 12.469 44.2685 13.4705 43.4066 14.9796C44.3017 13.9375 44.2352 12.8471 45.6941 12.518C46.034 12.4415 46.2654 12.3455 46.4956 12.3784C46.0815 12.5767 45.7234 12.9057 45.5812 13.2875C45.1809 14.3644 45.4294 15.2717 44.9895 16.2775C45.5341 15.3784 45.5672 14.5009 46.0546 13.5546C46.2296 13.215 46.8788 12.6713 47.2774 12.663L47.6055 12.6561C47.7017 13.2544 47.7601 13.8488 47.723 14.3417C47.6549 15.2413 47.4095 16.5765 47.2627 17.0875C47.7562 16.4832 47.9811 15.2034 48.1979 14.3021C48.4236 13.3642 48.3665 12.2386 48.169 11.2307C47.8977 9.84796 49.3931 10.073 50.2611 9.42129C50.8992 8.94212 51.3387 8.17733 51.9236 7.63525C52.504 7.09775 53.4177 7.88754 53.6458 8.41275C54.6355 10.6934 55.0863 14.2811 54.8251 16.58C54.5316 19.1596 53.2234 21.9757 50.8345 23.2457C47.789 24.8644 44.1982 23.8755 41.1723 22.9046V22.9046ZM36.845 34.3617C36.7456 35.4261 36.3731 35.4963 35.3918 35.48C34.946 35.4725 33.1706 35.4648 32.72 35.428C32.0834 35.3757 31.726 35.3215 31.5315 35.1832C32.5316 34.484 34.2309 31.5973 34.5623 30.6034C34.9127 29.5534 35.2962 28.6371 35.5815 27.6667C35.7127 28.0723 35.8162 28.4742 36.0071 28.905C36.3259 29.625 36.4818 30.0698 36.5046 30.8421L36.5768 33.2865C36.8509 33.7432 36.8935 33.8407 36.845 34.3615V34.3617ZM6.74649 26.2988C7.38152 28.3911 8.46346 30.4471 9.66287 32.1757V32.2059C9.5874 32.5032 9.50056 32.7923 9.31834 33.0246C8.46084 34.1171 6.28034 32.5136 5.64902 31.9003C4.95909 31.229 4.49731 30.4346 4.38727 29.6892C4.30721 29.1459 4.38509 29.1325 4.78321 28.748L6.39365 27.1953L6.74649 26.2988V26.2988ZM5.53352 13.1405C5.37077 13.4732 5.25527 13.7255 5.17674 13.985C4.83484 15.1096 5.3314 16.1134 4.25931 16.9286C4.76309 17.8965 4.7399 18.2828 5.91174 17.8355C6.36368 17.6625 6.73643 17.4209 7.06937 17.1346C6.9082 17.5334 6.76004 17.9367 6.62509 18.3442C6.6019 18.413 6.57981 18.4823 6.55859 18.5511C5.72056 18.8898 4.61827 19.105 4.19652 18.2663C3.99177 17.859 3.87606 17.4594 3.72665 16.9448C2.34656 15.5832 4.40959 13.7853 5.53352 13.1405V13.1405ZM6.21187 14.583C6.04146 14.4205 5.90518 14.3107 5.6849 14.3344C5.70349 14.1969 5.72821 14.0642 5.76299 13.9396C5.78049 13.8755 5.79931 13.8125 5.81943 13.7494C6.10512 13.908 6.18037 14.1953 6.21187 14.5828V14.583ZM47.5946 9.49671C47.6466 9.60129 47.6978 9.70775 47.7481 9.81546C47.7066 9.84462 47.667 9.87525 47.63 9.90754C47.562 9.75641 47.4639 9.61929 47.341 9.50379C47.4233 9.50087 47.5077 9.49837 47.5948 9.49671H47.5946ZM7.75056 15.6778L7.75034 15.6775V15.6778H7.75056ZM18.3597 32.1586H18.3601H18.3597ZM30.7985 35.6953H30.7983H30.7985ZM35.8538 26.5438H35.8542L35.854 26.544L35.8538 26.5438ZM5.67615 17.3146H5.67593L5.66652 17.2917L5.67593 17.3148L5.67615 17.3146ZM54.2067 21.1142L54.2133 21.118L54.2067 21.1142ZM0.806337 16.9871C1.02596 14.619 1.5094 13.5965 3.27602 11.8142C1.06009 13.3013 0.507087 13.9771 0.806337 16.9869" fill="#686868"/>
<path d="M0.234958 15.0527C0.478864 13.9869 0.706364 13.5846 1.39652 12.7098C0.276739 13.4546 0.131051 13.7604 0.234739 15.0527M26.2334 0.19458C24.9058 0.499372 24.6527 0.733122 24.2546 1.9725C24.8898 1.065 25.2556 0.769788 26.2334 0.19458" fill="#686868"/>
<path d="M28.3266 0.0141243C25.6935 0.628708 24.9197 1.06579 24.0452 3.97225C25.1569 1.8435 25.9986 1.05975 28.3266 0.013916M33.9974 10.6091C34.2781 9.42496 34.7768 8.28392 36.7077 7.401C34.1484 8.01142 33.6684 9.03537 33.9974 10.6093M50.2829 10.691C51.7987 10.1764 52.5293 9.01579 52.8922 7.65037C52.2989 8.79475 51.3835 9.75183 50.1399 10.3381C49.4725 10.6527 49.0461 10.5429 48.3008 10.4756C49.0588 10.6829 49.539 10.9435 50.2829 10.691ZM39.9575 11.8514C39.7631 11.4633 39.4165 11.1633 38.9921 11.0162C39.364 10.8272 39.7291 10.6287 40.0139 10.3818C39.1794 10.7497 38.2079 10.66 37.4917 11.1206C36.8611 11.5264 35.9905 12.8122 35.3495 13.3575C35.8137 13.1858 36.2611 12.8889 36.673 12.5762C36.6752 12.8732 36.7624 13.1641 36.9252 13.4174C37.0879 13.6708 37.3201 13.8772 37.5967 14.0143C37.3598 14.3099 37.1711 14.6379 37.0372 14.9873C38.2576 13.6098 40.0271 12.5693 41.6909 12.1245C41.2258 12.1183 40.6752 12.201 40.1143 12.3766C40.0934 12.1944 40.0404 12.0169 39.9575 11.8514M38.2016 22.2602C38.1423 22.6168 38.0609 23.0602 38.0016 23.417C38.1602 23.0133 38.351 22.5441 38.5354 22.1591C38.731 21.7516 38.841 21.7133 39.256 21.4983C39.5502 21.3458 40.0844 21.1362 40.3786 20.9837C40.0758 21.0323 39.5333 21.1383 39.2306 21.1868C38.4221 21.3168 38.3269 21.5018 38.2016 22.2602M24.3901 8.48871C23.4517 9.37204 22.5402 12.4033 22.249 13.6162C22.7077 12.6087 23.8557 9.79037 24.7364 9.0735C24.9797 8.87537 25.1496 8.75371 25.3323 8.66517C24.7019 9.67204 24.7482 9.92246 24.9694 11.2714C25.1573 9.89996 25.6552 9.37017 26.4722 8.34704C27.3678 8.13308 28.206 7.87662 29.1248 7.53537C28.09 7.64679 27.0542 7.74915 26.0174 7.84246C25.1472 7.921 25.007 7.90767 24.3899 8.48871" fill="#686868"/>
<path d="M37.1743 13.6487C37.0923 13.4846 37.0821 13.2961 37.1459 13.1248C37.2098 12.9535 37.3424 12.8133 37.5147 12.735C37.6086 12.6926 37.711 12.67 37.815 12.6687C37.9189 12.6674 38.0219 12.6875 38.117 12.7276C38.212 12.7677 38.2969 12.8268 38.3658 12.901C38.4346 12.9751 38.4859 13.0625 38.5161 13.1573C38.1735 13.3996 37.8596 13.6846 37.5962 14.015C37.4191 13.9471 37.262 13.8237 37.1741 13.6487M45.1877 10.6962C45.2166 10.414 45.4693 10.2058 45.7657 10.2331C45.9083 10.2465 46.0395 10.3131 46.1307 10.4184C46.2219 10.5237 46.2655 10.6591 46.2522 10.795C46.246 10.8533 46.2295 10.9101 46.2034 10.9631C45.9322 11.0075 45.6609 11.0829 45.3813 11.1808C45.2645 11.0669 45.1713 10.859 45.1877 10.6962" fill="#C9C9CA"/>
</g>
<defs>
<clipPath id="clip0_213_317">
<rect width="56" height="40" fill="white"/>
</clipPath>
</defs>
</svg>
