<svg width="38" height="53" viewBox="0 0 38 53" fill="none" xmlns="http://www.w3.org/2000/svg">
<path d="M38 11L34.5381 48.7957L18.9768 53L3.4583 48.8015L0 11H38Z" fill="#C9C9CA"/>
<path d="M18 50L31.7623 46.5737L35 14H18V50Z" fill="#686868"/>
<path d="M12.23 22.768H19V18H7L7.11448 19.2791L8.29076 32.4184H19V27.6504H12.6674L12.23 22.768ZM13.3086 34.8024H8.50459L9.17499 42.2888L18.978 45L19 44.994V40.0333L18.979 40.0389L13.6494 38.6051L13.3086 34.8024Z" fill="#2D2E32"/>
<path d="M4 0H6.41786V2.31157H8.62969V0H11.0477V7H8.62984V4.656H6.41801V7H4.00015L4 0ZM14.2271 2.32137H12.0989V0H18.775V2.32137H16.6454V7H14.2276L14.2271 2.32137ZM19.8345 0H22.3556L23.9064 2.45962L25.4558 0H27.9779V7H25.5699V3.53042L23.9064 6.0193H23.8647L22.2002 3.53042V7H19.8345V0ZM29.1812 0H31.5998V4.68627H35V7H29.181L29.1812 0Z" fill="#C9C9CA"/>
<path d="M18.0002 32.4196H24.3906L23.788 38.6038L18 40.0392V45L28.639 42.2909L28.717 41.4852L29.9366 28.9317L30.0632 27.6512H18.0002V32.4196ZM18.0002 22.7567V22.7684H30.5354L30.6394 21.6966L30.876 19.2792L31 18H18.0002V22.7569V22.7567Z" fill="#2D2E32"/>
</svg>
