<svg width="47" height="47" viewBox="0 0 47 47" fill="none" xmlns="http://www.w3.org/2000/svg">
<g clip-path="url(#clip0_213_344)">
<path d="M0 8C0 3.58172 3.58172 0 8 0H39C43.4183 0 47 3.58172 47 8V39C47 43.4183 43.4183 47 39 47H8C3.58172 47 0 43.4183 0 39V8Z" fill="#C9C9CA"/>
<path d="M12.3585 39.2766L12.6555 39.0968C14.4613 38.004 16.6837 39.3711 18.7944 39.3711V39.3711C20.2457 39.3711 21.1608 38.8034 21.1608 36.5951V23.7859C21.1608 22.5663 22.1495 21.5775 23.3692 21.5775V21.5775C24.5888 21.5775 25.5776 22.5663 25.5776 23.7859V36.6576C25.5776 41.2322 22.896 43.3145 18.9838 43.3145C15.4505 43.3145 13.3995 41.4846 12.3584 39.2762" fill="#2D2E32"/>
<path d="M27.9766 38.8034V38.8034C29.9769 37.6452 32.4598 38.7326 34.7085 39.2676C35.079 39.3558 35.4833 39.4029 35.9268 39.4029C37.7569 39.4029 38.9239 38.4879 38.9239 37.2259C38.9239 35.7115 37.7251 35.1752 35.7059 34.2921L34.602 33.8185C31.4153 32.4621 29.3014 30.7585 29.3014 27.1618C29.3014 23.8491 31.8253 21.3251 35.7692 21.3251C37.9135 21.3251 39.5977 21.8955 40.9204 23.3032C41.6596 24.09 41.3361 25.3155 40.4277 25.8988V25.8988C39.4416 26.532 38.2069 26.0419 37.1734 25.4896C36.7662 25.272 36.308 25.1743 35.7692 25.1743C34.4757 25.1743 33.6554 25.9946 33.6554 27.0671C33.6554 28.3922 34.4757 28.9286 36.3684 29.749L37.4726 30.2222C41.227 31.8313 43.3409 33.4717 43.3409 37.1628C43.3409 41.1383 40.2175 43.315 36.0215 43.315C31.9202 43.315 29.27 41.359 27.9766 38.8034" fill="#2D2E32"/>
</g>
<defs>
<clipPath id="clip0_213_344">
<rect width="47" height="47" fill="white"/>
</clipPath>
</defs>
</svg>
