<svg width="53" height="53" viewBox="0 0 53 53" fill="none" xmlns="http://www.w3.org/2000/svg">
<g clip-path="url(#clip0_213_387)">
<path d="M13.7155 7.31326C13.7155 3.74628 14.6939 1.80582 20.0955 0.881807C23.7627 0.253403 28.4647 0.174853 32.8507 0.881807C36.3149 1.44082 39.2306 3.9636 39.2306 7.31326V19.0814C39.2306 22.5329 36.3998 25.3602 32.8507 25.3602H20.0955C15.7665 25.3602 12.118 28.9688 12.118 33.0485V38.6947H7.73227C4.02249 38.6947 1.86256 36.0795 0.955201 32.4201C-0.268717 27.5039 -0.21676 24.5747 0.955201 19.8664C1.97129 15.759 5.21803 13.5918 8.92808 13.5918H26.4753V12.0208H13.7153V7.313L13.7155 7.31326Z" fill="url(#paint0_linear_213_387)"/>
<path d="M39.2309 44.9737C39.2309 48.5407 36.0645 50.3474 32.851 51.2483C28.0164 52.6067 24.1363 52.3988 20.0957 51.2483C16.7213 50.2874 13.7158 48.3236 13.7158 44.9737V33.2055C13.7158 29.8187 16.6034 26.9268 20.0957 26.9268H32.851C37.0996 26.9268 40.8284 23.337 40.8284 19.0814V13.5923H45.6111C49.3257 13.5923 51.0745 16.2905 51.991 19.8669C53.2668 24.8339 53.3236 28.5486 51.991 32.4206C50.7009 36.1816 49.3208 38.6952 45.6111 38.6952H26.4756V40.2662H39.2309V44.974V44.9737Z" fill="url(#paint1_linear_213_387)"/>
<path d="M16.9053 6.53242C16.9053 5.22953 17.9733 4.1759 19.2969 4.1759C20.6153 4.1759 21.6885 5.22927 21.6885 6.53242C21.6885 7.83112 20.6156 8.88422 19.2969 8.88422C17.9739 8.88422 16.9053 7.83086 16.9053 6.53242ZM31.2575 45.7548C31.2575 44.4561 32.3304 43.403 33.6491 43.403C34.9721 43.403 36.0407 44.4563 36.0407 45.7548C36.0407 47.0576 34.9726 48.1113 33.6491 48.1113C32.3306 48.1113 31.2575 47.0579 31.2575 45.7548Z" fill="#2D2E32"/>
</g>
<defs>
<linearGradient id="paint0_linear_213_387" x1="39.2309" y1="15.2751" x2="0.0570602" y2="14.9565" gradientUnits="userSpaceOnUse">
<stop stop-color="#C9C9CA"/>
<stop offset="1" stop-color="#6A6A6A"/>
</linearGradient>
<linearGradient id="paint1_linear_213_387" x1="52.969" y1="32.8916" x2="-24.5765" y2="32.8916" gradientUnits="userSpaceOnUse">
<stop stop-color="#6B6B6B"/>
<stop offset="1" stop-color="#C9C9CA"/>
</linearGradient>
<clipPath id="clip0_213_387">
<rect width="53" height="53" fill="white"/>
</clipPath>
</defs>
</svg>
