<svg width="52" height="40" viewBox="0 0 52 40" fill="none" xmlns="http://www.w3.org/2000/svg">
<path fill-rule="evenodd" clip-rule="evenodd" d="M25.9353 34.7393C11.6113 34.7393 0 26.9625 0 17.3696C0 7.77675 11.6116 0 25.9353 0C40.2591 0 51.8707 7.77675 51.8707 17.3696C51.8707 26.9625 40.2591 34.7393 25.9353 34.7393ZM29.9053 6.79104C19.018 6.79104 10.1923 12.1076 10.1923 18.6656C10.1923 25.2237 19.0184 30.5403 29.9053 30.5403C40.7922 30.5403 48.8268 26.9054 48.8268 18.6656C48.8268 10.4285 40.7922 6.79104 29.9053 6.79104Z" fill="url(#paint0_linear_212_76)"/>
<path fill-rule="evenodd" clip-rule="evenodd" d="M39.4987 26.9034C39.4987 26.9034 41.0681 27.3772 41.9804 27.8386C42.2969 27.9984 42.8444 28.3182 43.2393 28.7378C43.6262 29.1489 43.8148 29.565 43.8148 29.565L50.0013 39.9954L40.0025 40L35.3268 31.2228C35.3268 31.2228 34.3694 29.5777 33.7802 29.1006C33.2888 28.7026 33.0793 28.5613 32.5931 28.5613H30.2177L30.2197 39.9967L21.3721 40V10.7887H39.1385C39.1385 10.7887 47.2311 10.9345 47.2311 18.634C47.2311 26.3334 39.498 26.9064 39.498 26.9064L39.4987 26.9034ZM35.6504 17.122L30.2941 17.1187L30.2915 22.0858L35.6504 22.0838C35.6504 22.0838 38.1322 22.076 38.1322 19.557C38.1322 16.9875 35.6504 17.122 35.6504 17.122Z" fill="url(#paint1_linear_212_76)"/>
<defs>
<linearGradient id="paint0_linear_212_76" x1="1.69699e-06" y1="-21.3552" x2="51.8707" y2="56.0948" gradientUnits="userSpaceOnUse">
<stop stop-color="#CBCED0"/>
<stop offset="1" stop-color="#84838B"/>
</linearGradient>
<linearGradient id="paint1_linear_212_76" x1="21.3714" y1="10.7858" x2="50.0009" y2="39.9993" gradientUnits="userSpaceOnUse">
<stop stop-color="#686868"/>
<stop offset="1" stop-color="#686868"/>
</linearGradient>
</defs>
</svg>
