<svg width="67" height="27" viewBox="0 0 67 27" fill="none" xmlns="http://www.w3.org/2000/svg">
<g clip-path="url(#clip0_213_318)">
<path d="M9.58513 0.00254968C8.63694 -0.0184734 7.65739 0.0903066 6.65413 0.336476C2.01506 1.47429 -3.17779 7.33408 2.49249 14.0906L5.8769 18.1135L6.83229 19.2583C7.47354 20.007 8.52289 19.9936 9.29371 19.3696C10.0684 18.7425 10.2886 17.714 9.64988 16.9527C9.52056 16.7988 9.39101 16.6451 9.26123 16.4916H9.2774C9.03286 16.2026 8.97969 16.1541 8.7269 15.8555C7.50202 14.409 6.10356 12.7389 6.10356 12.7389C3.64156 9.8049 4.74014 6.18019 8.07917 4.12076C11.0212 2.30609 16.4201 2.95427 18.2809 5.93337C17.1089 2.53676 13.6941 0.0937783 9.58513 0.00254968ZM10.2653 7.09434C9.82791 7.07968 9.3711 7.24343 8.98605 7.55543C8.21005 8.18323 7.99176 9.21285 8.62987 9.97238C8.63118 9.97424 8.70818 10.0684 8.8403 10.2268C10.308 11.9583 12.2571 14.2814 12.2571 14.2814C14.7198 17.2154 13.6206 20.8243 10.2816 22.8838C7.34017 24.6977 1.94068 24.0483 0.0797871 21.0711C1.5223 25.2498 6.35695 27.9815 11.7066 26.6682C16.3469 25.5283 21.5385 19.6852 15.8682 12.9299L11.9009 8.22335L11.4474 7.66684C11.1268 7.29242 10.7028 7.10893 10.2653 7.09434V7.09434Z" fill="#686868"/>
<path d="M27.7539 3.21454C24.8164 3.21454 21.4547 4.70223 21.4547 8.28683C21.4547 11.6991 24.2186 12.657 26.9604 13.3114C29.7353 13.9659 32.4823 14.3449 32.4823 16.6188C32.4823 18.8589 30.1324 19.2742 28.4017 19.2742C26.1171 19.2742 23.9647 18.4582 23.8675 15.8396H21.0985C21.2604 20.2505 24.453 21.866 28.2397 21.866C31.6681 21.866 35.4295 20.4934 35.4295 16.253C35.4295 12.8064 32.6818 11.8358 29.9077 11.1807C27.3296 10.5262 24.3857 10.1822 24.3857 8.08C24.3857 6.2877 26.3159 5.80623 27.9806 5.80623C29.8098 5.80623 31.7025 6.5205 31.8994 8.79556H34.6685C34.4405 4.45291 31.4751 3.21448 27.7539 3.21448V3.21454ZM43.7529 3.21454C39.9979 3.21454 36.7574 4.76646 36.5955 9.17732H39.3646C39.4954 6.55811 41.2249 5.8063 43.5748 5.8063C45.3386 5.8063 47.3317 6.21338 47.3317 8.76386C47.3317 10.9696 44.7331 10.7667 41.6641 11.3875C38.7927 11.9732 35.9478 12.8402 35.9478 16.8732C35.9478 20.4236 38.4649 21.8661 41.5345 21.8661C43.8825 21.8661 45.9274 20.9941 47.4612 19.0993C47.4612 21.0284 48.3888 21.8661 49.8255 21.8661C50.7057 21.8661 51.3113 21.6828 51.801 21.3731V19.0993C51.4422 19.2373 51.187 19.2742 50.959 19.2742C50.0781 19.2742 50.0846 18.6662 50.0846 17.2867V8.11196C50.0845 3.94206 46.7888 3.21454 43.7529 3.21454V3.21454ZM58.262 3.21454C55.3246 3.21454 51.9629 4.70223 51.9629 8.28683C51.9629 11.6991 54.7436 12.657 57.4848 13.3114C60.2603 13.9659 63.0067 14.3449 63.0067 16.6188C63.0067 18.8589 60.6561 19.2742 58.926 19.2742C56.6408 19.2742 54.489 18.4582 54.392 15.8396H51.6067C51.7692 20.2505 54.9781 21.866 58.764 21.866C62.1905 21.866 65.9377 20.4934 65.9377 16.253C65.9377 12.8064 63.1899 11.8358 60.4157 11.1807C57.8384 10.5262 54.91 10.1822 54.91 8.08C54.91 6.2877 56.824 5.80623 58.4887 5.80623C60.3159 5.80623 62.2099 6.5205 62.4075 8.79556H65.1928C64.9654 4.45291 61.9846 3.21448 58.262 3.21448V3.21454ZM47.2992 12.2461V15.2513C47.2992 16.8713 45.8062 19.2742 42.1498 19.2742C40.454 19.2742 38.8787 18.5816 38.8787 16.6505C38.8787 14.4798 40.4527 13.7992 42.2793 13.4545C44.1402 13.1105 46.2227 13.073 47.2992 12.2461ZM19.8193 20.0534C19.2337 20.0534 18.7344 20.4999 18.7344 21.1028C18.7344 21.7084 19.2337 22.1523 19.8193 22.1523C20.3996 22.1523 20.8879 21.7084 20.8879 21.1028C20.8879 20.4999 20.3996 20.0534 19.8192 20.0534H19.8193ZM65.9053 20.0534C65.3178 20.0534 64.8204 20.5005 64.8204 21.1028C64.8204 21.709 65.3179 22.1523 65.9053 22.1523C66.485 22.1523 66.9903 21.7089 66.9903 21.1028C66.9903 20.5005 66.485 20.0534 65.9054 20.0534H65.9053ZM19.8192 20.2283C20.2999 20.2283 20.6774 20.6048 20.6774 21.1029C20.6774 21.6053 20.2998 21.9775 19.8192 21.9775C19.3295 21.9775 18.9448 21.6054 18.9448 21.1029C18.9448 20.6048 19.3295 20.2283 19.8192 20.2283V20.2283ZM65.9053 20.2283C66.386 20.2283 66.7797 20.6055 66.7797 21.1029C66.7797 21.606 66.3859 21.9775 65.9053 21.9775C65.415 21.9775 65.0471 21.6061 65.0471 21.1029C65.0471 20.6055 65.4149 20.2283 65.9053 20.2283V20.2283ZM19.3981 20.4987V21.7071H19.5926V21.1824H19.803L20.1269 21.707H20.3374L19.9813 21.1665C20.1639 21.1461 20.305 21.0654 20.305 20.8485C20.305 20.6093 20.1606 20.4987 19.8678 20.4987H19.3981V20.4987ZM65.5005 20.4987V21.7071H65.6786V21.1824H65.9053L66.2291 21.707H66.4397L66.0835 21.1665C66.2629 21.1467 66.4073 21.0654 66.4073 20.8485C66.4073 20.6093 66.261 20.4987 65.9701 20.4987H65.5005V20.4987ZM19.5925 20.6576H19.8516C19.9798 20.6576 20.1107 20.6824 20.1107 20.8325C20.1107 21.017 19.9792 21.0233 19.8192 21.0233H19.5925V20.6575V20.6576ZM65.6786 20.6576H65.9377C66.0685 20.6576 66.213 20.6818 66.213 20.8325C66.213 21.017 66.064 21.0233 65.9053 21.0233H65.6786V20.6575V20.6576Z" fill="#C9C9CA"/>
</g>
<defs>
<clipPath id="clip0_213_318">
<rect width="67" height="27" fill="white"/>
</clipPath>
</defs>
</svg>
