<svg width="54" height="41" viewBox="0 0 54 41" fill="none" xmlns="http://www.w3.org/2000/svg">
<path d="M46.47 23.2664C44.5821 23.2771 42.9474 23.7305 41.5763 24.4056C41.07 23.4036 40.5638 22.5281 40.4795 21.8743C40.3846 21.115 40.2686 20.6508 40.3846 19.7439C40.5005 18.8367 41.0278 17.55 41.0278 17.4445C41.0172 17.3496 40.9117 16.8856 39.8255 16.875C38.7393 16.8645 37.8005 17.086 37.695 17.3707C37.5895 17.6555 37.3786 18.3094 37.2415 18.9844C37.0517 19.9758 35.0688 23.4879 33.9403 25.3336C33.5712 24.6164 33.2548 23.9836 33.1914 23.4773C33.0966 22.718 32.9805 22.2538 33.0966 21.3469C33.2126 20.4398 33.7399 19.1531 33.7399 19.0477C33.7294 18.9528 33.6239 18.4887 32.5377 18.4781C31.4513 18.4676 30.5127 18.6891 30.4072 18.9738C30.3018 19.2586 30.1857 19.9336 29.9537 20.5875C29.7321 21.2414 27.0954 27.1055 26.4099 28.6348C26.0618 29.4153 25.7561 30.0375 25.5345 30.4594C25.313 30.8813 25.5239 30.491 25.5028 30.5332C25.313 30.8918 25.2075 31.0922 25.2075 31.0922V31.1029C25.0599 31.3665 24.9017 31.6195 24.8277 31.6195C24.775 31.6195 24.6695 30.9129 24.8488 29.9427C25.239 27.9071 26.1883 24.7325 26.1778 24.6165C26.1778 24.5638 26.357 24.0047 25.566 23.72C24.7961 23.4353 24.522 23.9099 24.4586 23.9099C24.3953 23.9099 24.3426 24.0786 24.3426 24.0786C24.3426 24.0786 25.1969 20.5034 22.7078 20.5034C21.1469 20.5034 18.9953 22.2014 17.9301 23.7518C17.2551 24.1209 15.8207 24.9013 14.3019 25.7346C13.7219 26.051 13.1207 26.3885 12.5512 26.6944L12.4352 26.5676C9.41884 23.3508 3.83954 21.0727 4.07157 16.7485C4.15595 15.177 4.70439 11.032 14.7873 6.01173C23.0455 1.89845 29.6584 3.02697 30.8079 5.53712C32.4427 9.12306 27.2747 15.7887 18.6896 16.7485C15.4201 17.1176 13.7009 15.852 13.2686 15.3774C12.815 14.8817 12.7518 14.8606 12.583 14.9555C12.3088 15.1031 12.4775 15.5461 12.583 15.8098C12.8361 16.4742 13.8908 17.6555 15.6838 18.2461C17.2552 18.7629 21.0943 19.0477 25.735 17.2547C30.9346 15.2403 34.9951 9.65041 33.8033 4.97814C32.5904 0.221499 24.7014 -1.33944 17.2447 1.30783C12.8044 2.88986 7.99501 5.35783 4.53564 8.59572C0.422355 12.4348 -0.231551 15.7887 0.0426678 17.1809C1.00254 22.1485 7.84736 25.3863 10.5895 27.7805C10.4524 27.8542 10.3259 27.928 10.2099 27.9914C8.83876 28.6663 3.61806 31.3981 2.31025 34.2878C0.833683 37.5573 2.54228 39.9094 3.68134 40.2258C7.204 41.2067 10.811 39.4453 12.7622 36.5449C14.7027 33.6446 14.4708 29.8793 13.5743 28.1602L13.5426 28.0969L14.6183 27.4641C15.3145 27.0528 16.0001 26.6731 16.6012 26.346C16.2638 27.2636 16.0211 28.3499 15.8946 29.9319C15.747 31.7883 16.5063 34.1929 17.5083 35.1421C17.9513 35.5533 18.4786 35.564 18.8056 35.564C19.9657 35.564 20.4931 34.6041 21.0731 33.4546C21.7903 32.0519 22.4231 30.4276 22.4231 30.4276C22.4231 30.4276 21.6321 34.8257 23.7942 34.8257C24.5852 34.8257 25.3763 33.8026 25.7349 33.2753V33.2859C25.7349 33.2859 25.756 33.2542 25.7981 33.1804C25.8424 33.1149 25.8846 33.0482 25.9247 32.9801V32.959C26.2411 32.4106 26.9477 31.1555 28.0024 29.0778C29.3629 26.3988 30.6708 23.0449 30.6708 23.0449C30.6708 23.0449 30.7974 23.8676 31.1876 25.2176C31.4195 26.0193 31.9258 26.8946 32.316 27.7488C31.9996 28.1918 31.8098 28.445 31.8098 28.445L31.8203 28.4556C31.5673 28.7931 31.2824 29.1518 30.9872 29.5103C29.9114 30.797 28.6247 32.2631 28.4559 32.685C28.2556 33.1806 28.2977 33.5497 28.688 33.8452C28.9727 34.0561 29.479 34.0982 30.0169 34.0561C30.9872 33.9927 31.6622 33.7502 31.9997 33.6025C32.527 33.4126 33.1282 33.1279 33.7083 32.706C34.763 31.9256 35.4063 30.8182 35.3431 29.3416C35.3114 28.5295 35.0477 27.728 34.7208 26.9686C34.8157 26.8315 34.9107 26.6943 35.0056 26.5467C36.672 24.1103 37.9587 21.4315 37.9587 21.4315C37.9587 21.4315 38.0852 22.2541 38.4755 23.6041C38.6758 24.2897 39.0767 25.0386 39.4352 25.7769C37.8743 27.0531 36.8935 28.5296 36.556 29.4999C35.9337 31.2929 36.4188 32.105 37.3364 32.2949C37.7476 32.3792 38.3384 32.1894 38.7812 31.9996C39.3297 31.8203 39.9941 31.5143 40.606 31.0609C41.6606 30.2804 42.6731 29.1941 42.6204 27.7281C42.5888 27.0531 42.4095 26.3886 42.1669 25.7558C43.4958 25.2074 45.2148 24.891 47.3981 25.1546C52.0915 25.7031 53.0196 28.6351 52.8404 29.8585C52.6611 31.0821 51.6803 31.757 51.3532 31.9679C51.0263 32.1683 50.9208 32.2422 50.9524 32.3898C50.9946 32.6114 51.1423 32.6007 51.427 32.5586C51.8173 32.4953 53.895 31.5567 53.9794 29.2998C54.106 26.399 51.3532 23.2349 46.47 23.2664V23.2664ZM10.2731 35.4692C8.72275 37.1672 6.53954 37.8106 5.61142 37.2621C4.60947 36.682 4.99959 34.1824 6.90868 32.3789C8.06884 31.2821 9.57704 30.2696 10.5684 29.6473C10.7899 29.5102 11.1274 29.3099 11.5282 29.0672C11.5915 29.0251 11.6337 29.0039 11.6337 29.0039C11.7075 28.9617 11.7919 28.909 11.8763 28.8563C12.5829 31.4297 11.9079 33.6867 10.2731 35.4692V35.4692ZM21.611 27.7594C21.0731 29.0778 19.9341 32.4633 19.2485 32.2735C18.6578 32.1153 18.2993 29.5524 19.1324 27.0211C19.5543 25.7448 20.4508 24.2262 20.9781 23.6355C21.8325 22.6862 22.7605 22.3698 22.9927 22.7601C23.2669 23.2664 21.9485 26.9367 21.611 27.7594ZM30.9661 32.2313C30.7341 32.3474 30.5231 32.4317 30.4282 32.3685C30.3544 32.3263 30.523 32.1681 30.523 32.1681C30.523 32.1681 31.6937 30.913 32.1578 30.3329C32.4215 29.9955 32.7379 29.6053 33.0754 29.1622V29.2888C33.0755 30.8074 31.62 31.8199 30.9661 32.2313ZM38.1801 30.586C38.0113 30.4594 38.0325 30.0692 38.6019 28.8457C38.8235 28.3606 39.3297 27.5485 40.2051 26.7785C40.3105 27.0949 40.3739 27.4007 40.3633 27.6856C40.3528 29.584 39.0028 30.2906 38.1801 30.586Z" fill="#C9C9CA"/>
</svg>
