<svg width="84" height="58" viewBox="0 0 84 58" fill="none" xmlns="http://www.w3.org/2000/svg">
<path fill-rule="evenodd" clip-rule="evenodd" d="M76.8408 29.263C76.7683 29.0574 76.7356 28.9537 76.6961 28.8543C75.6437 26.1979 74.5937 23.5395 73.5318 20.8897C73.4247 20.6236 73.4379 20.4652 73.5846 20.2378C75.2584 17.6417 76.9236 15.0351 78.5907 12.4311C78.6491 12.3399 78.7019 12.2422 78.7243 12.0798C78.2368 12.249 77.7493 12.416 77.2623 12.5873C75.2397 13.2989 73.2166 14.0082 71.1959 14.7295C71.0074 14.7966 70.9219 14.7234 70.8283 14.5161C69.6798 11.9692 68.5249 9.42765 67.3713 6.88503C67.3115 6.75285 67.2474 6.62463 67.1205 6.51364C67.0277 7.19213 66.9332 7.87025 66.8423 8.5491C66.5209 10.9455 66.2006 13.3427 65.8803 15.7395C65.8454 15.9981 65.7972 16.2556 65.7807 16.5164C65.7645 16.7639 65.669 16.8551 65.5005 16.9255C63.1167 17.919 60.7354 18.9222 58.3541 19.9243C58.2494 19.9681 58.1474 20.0248 58.0351 20.1602C59.9833 21.1882 61.9315 22.2161 63.9097 23.2598C63.8377 23.3357 63.7909 23.394 63.7381 23.4396C62.5202 24.4859 61.3003 25.5279 60.0853 26.5797C59.94 26.7054 59.8245 26.7232 59.6611 26.6255C58.2063 25.7558 56.746 24.9025 55.2891 24.0386C54.6349 23.6508 54.0465 23.1356 53.5882 22.3916C52.5523 20.7091 52.7568 18.795 54.1371 17.6259C54.5889 17.2434 55.1016 16.9564 55.6132 16.7348C57.9477 15.7251 60.2912 14.7514 62.6335 13.7744C62.8297 13.6929 62.9208 13.5762 62.9574 13.2938C63.2693 10.8949 63.5931 8.49846 63.9186 6.1031C64.0928 4.82227 64.1853 3.5084 64.655 2.3346C64.8352 1.88348 65.0514 1.44133 65.3084 1.06312C66.238 -0.306787 67.5358 -0.359947 68.5189 0.945306C68.8506 1.38566 69.136 1.90539 69.3825 2.43841C70.4657 4.78276 71.5311 7.1422 72.5908 9.50559C72.7161 9.78503 72.8292 9.84142 73.061 9.75881C75.6729 8.82926 78.2874 7.91408 80.9019 6.99709C81.4411 6.80817 81.9865 6.73849 82.5401 6.87605C83.7451 7.17561 84.2718 8.39358 83.8641 9.93876C83.6785 10.6431 83.3585 11.2375 82.9984 11.7993C81.1741 14.6476 79.3528 17.4991 77.5223 20.3402C77.3727 20.5722 77.3694 20.7403 77.4731 20.9996C78.565 23.7322 79.6474 26.4713 80.7339 29.2078C80.9939 29.863 81.1922 30.5425 81.1982 31.2947C81.2112 33.0054 80.2689 34.4054 78.9884 34.6545C78.2712 34.7944 77.6048 34.591 76.9328 34.3154C75.2952 33.6434 73.6546 32.9825 72.0132 32.3272C71.8612 32.2667 71.803 32.1878 71.7762 31.9701C71.5874 30.4366 71.3815 28.9064 71.1824 27.375C71.1767 27.3329 71.1862 27.2875 71.1911 27.1937C73.0597 27.8782 74.9121 28.5565 76.8408 29.263Z" fill="#686868"/>
<path fill-rule="evenodd" clip-rule="evenodd" d="M73.6467 51.5984C72.1698 51.5948 70.6929 51.5859 69.2157 51.5937C69.0209 51.5944 68.9103 51.519 68.8015 51.2988C67.053 47.763 65.2966 44.2341 63.5416 40.7037C63.4856 40.5914 63.4261 40.4829 63.3268 40.2939C62.9489 44.107 62.5796 47.8348 62.2095 51.5721C60.9171 51.5721 59.6504 51.5721 58.3418 51.5721C58.387 51.0718 58.4267 50.5883 58.4744 50.1066C58.852 46.2782 59.2311 42.4497 59.6101 38.6216C59.9721 34.9638 60.333 31.3059 60.7004 27.6487C60.7112 27.5396 60.7659 27.4018 60.833 27.3439C62.1638 26.1918 63.4992 25.0498 64.8346 23.9069C64.854 23.89 64.8811 23.888 64.9501 23.8621C64.5462 27.9521 64.1452 32.0101 63.7443 36.0683C63.7602 36.0826 63.7759 36.097 63.7919 36.1118C65.887 33.0284 67.9823 29.9451 70.1226 26.7957C70.1845 27.2698 70.2381 27.6756 70.2906 28.0816C70.4407 29.2441 70.5847 30.4084 70.7454 31.5686C70.7778 31.8023 70.731 31.9478 70.6136 32.1104C69.2587 33.9929 67.909 35.8818 66.5582 37.7689C66.4992 37.8512 66.4427 37.9367 66.3756 38.0343C66.4186 38.126 66.4554 38.2139 66.4989 38.2954C68.8291 42.6376 71.1593 46.979 73.4914 51.3193C73.5336 51.398 73.5945 51.4597 73.6467 51.5295C73.6467 51.5523 73.6467 51.5753 73.6467 51.5984Z" fill="#B7B7B7"/>
<path fill-rule="evenodd" clip-rule="evenodd" d="M27.8015 40.311C27.7426 39.9108 27.7004 39.3232 27.5664 38.7743C26.9188 36.121 24.8682 34.6661 22.7457 35.322C20.4173 36.0414 18.7534 38.4716 18.5126 41.6259C18.3345 43.959 19.2808 46.2068 21.0404 47.0504C22.458 47.7303 23.8229 47.4459 25.0901 46.437C26.7698 45.0991 27.6809 43.1128 27.8015 40.311ZM17.5767 50.1728C17.4618 51.3143 17.3523 52.39 17.2456 53.4665C17.104 54.8975 16.9627 56.3287 16.827 57.7604C16.8112 57.9275 16.773 58.0012 16.6379 58C15.5754 57.9943 14.513 57.9957 13.4507 57.9936C13.4265 57.9936 13.4023 57.9759 13.3447 57.9544C13.409 57.2789 13.4714 56.6013 13.5382 55.9244C13.7726 53.5509 14.0065 51.1771 14.2444 48.804C14.5164 46.0905 14.7319 43.364 15.0802 40.6679C15.6972 35.8939 18.7478 31.7798 22.3275 30.7554C24.4029 30.1611 26.389 30.4361 28.2009 31.9864C30.0078 33.5326 31.0443 35.7763 31.2804 38.5987C31.6146 42.5892 30.5083 45.9019 28.3732 48.6423C26.972 50.4415 25.2943 51.5848 23.3592 51.9712C21.3657 52.3704 19.4919 51.9288 17.8103 50.3686C17.7485 50.3115 17.6825 50.2616 17.5767 50.1728Z" fill="#B7B7B7"/>
<path fill-rule="evenodd" clip-rule="evenodd" d="M15.846 27.4874C14.6545 28.665 13.5059 29.8 12.3523 30.9401C12.1664 30.5507 11.9998 30.1627 11.8054 29.8017C11.3049 28.8732 10.6833 28.1794 9.77918 28.0952C9.02726 28.0252 8.38418 28.3541 7.87236 29.0901C7.41458 29.7483 7.35476 30.6841 7.78254 31.4274C8.25345 32.2457 8.76886 33.022 9.29515 33.7795C10.1675 35.0352 11.0795 36.2428 11.9463 37.5052C12.735 38.6536 13.3637 39.9423 13.5578 41.5126C13.7887 43.3793 13.5082 45.1573 12.8431 46.798C11.6122 49.834 9.67391 51.5955 7.11506 52.1468C5.98503 52.39 4.85803 52.3415 3.75538 51.9105C2.29201 51.3386 1.27345 50.0654 0.618445 48.2674C0.387003 47.6317 0.209988 46.961 0 46.2797C1.28117 45.3696 2.52567 44.4852 3.78844 43.588C3.83251 43.7277 3.86327 43.844 3.90437 43.9529C4.11964 44.5251 4.29592 45.1329 4.56265 45.6594C5.35358 47.2207 6.63114 47.6959 7.92723 46.924C8.26011 46.7257 8.58075 46.446 8.85384 46.1245C9.68903 45.1403 9.84565 43.7701 9.22741 42.5316C8.87221 41.8201 8.42795 41.1822 7.99549 40.5447C6.96193 39.0207 5.88631 37.5455 4.87664 35.9942C4.18062 34.9249 3.70771 33.6779 3.55807 32.2457C3.39458 30.682 3.63014 29.2064 4.24309 27.8899C5.76689 24.6176 7.98123 22.9153 10.9101 23.0563C12.5798 23.1367 13.9094 24.1733 14.9415 25.8957C15.2469 26.4051 15.5331 26.9349 15.846 27.4874Z" fill="#B7B7B7"/>
<path fill-rule="evenodd" clip-rule="evenodd" d="M44.1371 45.0553C43.9428 47.0264 43.7597 48.8999 43.5692 50.772C43.5595 50.8667 43.5035 50.9956 43.4426 51.0333C40.5597 52.806 36.7634 52.5585 34.3959 48.989C33.1238 47.0713 32.5901 44.7951 32.6699 42.2629C32.8544 36.4012 36.5151 31.284 40.8927 30.569C43.4505 30.1512 45.6935 31.0684 47.4264 33.7061C48.6065 35.5031 49.1524 37.6489 49.0718 40.017C49.0188 41.5812 48.834 43.1386 48.6874 44.6957C48.4796 46.901 48.2526 49.1035 48.0332 51.3071C48.0253 51.3854 48.0134 51.463 48.0002 51.5625C46.8588 51.5625 45.7241 51.5625 44.5513 51.5625C44.5973 51.0561 44.6392 50.5604 44.6876 50.0658C44.9374 47.5206 45.212 44.9794 45.4308 42.4296C45.5672 40.8417 45.4814 39.2656 44.9344 37.7948C44.3524 36.2317 43.3769 35.4049 42.0937 35.2242C39.438 34.851 36.9114 37.301 36.3449 40.7706C35.9708 43.061 36.5605 45.2563 37.9344 46.47C39.2735 47.6529 40.7077 47.6568 42.167 46.8896C42.9069 46.501 43.5373 45.8856 44.1371 45.0553Z" fill="#B7B7B7"/>
<path fill-rule="evenodd" clip-rule="evenodd" d="M58.66 31.0141C58.5026 32.6016 58.3476 34.1655 58.189 35.7617C57.4599 35.7617 56.7449 35.7561 56.0301 35.7637C55.4509 35.7697 54.9222 36.2661 54.7483 36.9842C54.6801 37.2651 54.6549 37.5656 54.6257 37.8602C54.2629 41.5055 53.9028 45.1508 53.5427 48.7965C53.4518 49.7156 53.3634 50.6354 53.2724 51.5686C52.0761 51.5686 50.8968 51.5686 49.6826 51.5686C49.7497 50.8675 49.813 50.1893 49.8798 49.5119C50.1133 47.1492 50.3468 44.7873 50.5833 42.4257C50.7875 40.3819 50.9696 38.3336 51.2101 36.2974C51.5326 33.5677 53.5782 31.1437 55.653 31.0239C56.6429 30.9668 57.6363 31.0141 58.66 31.0141Z" fill="#B7B7B7"/>
<path d="M77.8794 51.5686V49.5568H77.8707L77.2761 51.5686H77.0864L76.4918 49.5568H76.4829V51.5686H76.1834V49.1589H76.6457L77.1876 50.9896L77.7209 49.1589H78.1792V51.5686H77.8794ZM75.2449 49.481V51.5686H74.9454V49.481H74.377V49.1589H75.8133V49.481H75.2449Z" fill="#B7B7B7"/>
<path d="M20.6547 24.1037H21.5447L21.3348 22.3147L20.6547 24.1037ZM21.6844 25.2595H20.2036L19.7332 26.4828H18.6846L20.9977 20.7457H22.0086L22.7963 26.4828H21.8241L21.6844 25.2595Z" fill="#B7B7B7"/>
<path d="M26.983 21.9012H26.4555L26.2779 23.2257H26.805C27.1231 23.2257 27.3774 22.9477 27.3774 22.4242C27.3774 22.0782 27.2181 21.9012 26.983 21.9012ZM25.7056 20.7457H27.0914C27.816 20.7457 28.324 21.3193 28.324 22.3061C28.324 23.5466 27.6631 24.3815 26.7225 24.3815H26.1253L25.8453 26.4828H24.9434L25.7056 20.7457Z" fill="#B7B7B7"/>
<path d="M31.389 24.1037H32.2791L32.0692 22.3147L31.389 24.1037ZM32.4187 25.2595H30.938L30.4676 26.4828H29.4189L31.7321 20.7457H32.7428L33.5307 26.4828H32.5586L32.4187 25.2595Z" fill="#B7B7B7"/>
<path d="M38.2733 26.2801C37.9684 26.4656 37.6319 26.5758 37.2948 26.5758C36.1512 26.5758 35.4326 25.4365 35.4326 24.0105C35.4326 22.1878 36.5892 20.6523 37.9622 20.6523C38.3052 20.6523 38.6169 20.7619 38.8709 20.9476L38.7438 22.3232C38.5533 22.0445 38.2479 21.8505 37.8667 21.8505C37.0789 21.8505 36.3798 22.7959 36.3798 23.8924C36.3798 24.7275 36.7737 25.3778 37.3968 25.3778C37.7782 25.3778 38.1464 25.1836 38.3942 24.9137L38.2733 26.2801Z" fill="#B7B7B7"/>
<path d="M43.7877 24.1709H41.9067L41.6012 26.4828H40.6992L41.4616 20.7457H42.3641L42.0592 23.0151H43.9403L44.245 20.7457H45.1475L44.3854 26.4828H43.4828L43.7877 24.1709Z" fill="#B7B7B7"/>
<path d="M47.0977 26.4828L47.8598 20.7457H50.256L50.1034 21.9012H48.6097L48.4577 23.0151H49.8299L49.6778 24.1709H48.3048L48.1522 25.3269H49.6459L49.4933 26.4828H47.0977Z" fill="#B7B7B7"/>
</svg>
